<?xml version="1.0" standalone="no"?>
<!DOCTYPE svg PUBLIC "-//W3C//DTD SVG 20010904//EN"
 "http://www.w3.org/TR/2001/REC-SVG-20010904/DTD/svg10.dtd">
<svg version="1.0" xmlns="http://www.w3.org/2000/svg"
 width="512.000000pt" height="512.000000pt" viewBox="0 0 512.000000 512.000000"
 preserveAspectRatio="xMidYMid meet">
<metadata>
Created by potrace 1.14, written by Peter Selinger 2001-2017
</metadata>
<g transform="translate(0.000000,512.000000) scale(0.100000,-0.100000)"
fill="#000000" stroke="none">
<path d="M1735 4494 c-33 -7 -73 -16 -90 -19 -77 -14 -385 -98 -405 -110 -5
-3 -18 -8 -27 -10 -39 -8 -270 -96 -373 -143 l-65 -30 -93 -150 c-102 -164
-120 -195 -218 -387 -140 -274 -299 -700 -339 -903 -1 -9 -8 -35 -13 -57 -6
-22 -18 -76 -27 -120 -9 -44 -18 -87 -20 -96 -6 -29 -28 -182 -40 -279 -27
-221 -27 -886 0 -930 9 -14 244 -172 355 -238 184 -110 486 -257 650 -317 150
-55 276 -95 287 -91 12 5 110 146 165 239 35 59 108 194 108 200 0 3 -26 15
-57 27 -84 33 -335 159 -353 176 -16 16 -15 18 60 73 26 19 26 19 125 -23 172
-73 445 -159 575 -181 19 -3 55 -11 80 -16 25 -6 65 -13 90 -15 25 -3 51 -7
58 -10 59 -19 546 -27 692 -11 322 34 654 124 960 260 31 14 36 14 60 -3 44
-32 71 -61 64 -71 -10 -18 -340 -179 -367 -179 -7 0 -21 -7 -31 -15 -18 -14
-18 -16 14 -77 54 -102 181 -305 237 -377 6 -8 169 47 343 116 176 70 423 190
559 272 46 28 86 51 88 51 5 0 264 176 290 197 19 16 23 32 30 123 15 207 9
650 -12 820 -17 136 -25 191 -31 218 -3 13 -7 43 -10 65 -3 23 -14 79 -25 124
-10 44 -21 94 -24 110 -7 43 -50 190 -96 333 -121 370 -281 698 -528 1082
l-43 66 -132 55 c-153 64 -463 170 -556 191 -14 3 -84 19 -157 36 -72 16 -151
31 -175 32 l-43 3 -65 -133 -65 -133 -60 6 c-34 3 -72 7 -85 10 -158 30 -673
27 -934 -7 -60 -7 -91 -8 -93 -1 -2 6 -32 66 -66 134 -70 140 -67 137 -172
113z m159 -1658 c126 -63 227 -189 263 -331 13 -51 12 -214 -3 -274 -58 -252
-296 -421 -523 -372 -119 25 -239 113 -303 222 -93 159 -100 365 -16 539 42
87 136 181 220 219 82 37 96 40 202 36 78 -3 97 -8 160 -39z m1652 22 c147
-50 266 -183 309 -348 22 -82 15 -248 -14 -329 -51 -146 -153 -255 -287 -307
-68 -26 -210 -26 -279 0 -203 78 -332 290 -320 525 18 329 309 554 591 459z"/>
</g>
</svg>
