<svg width="1708" height="1208" viewBox="0 0 1708 1208" fill="none" xmlns="http://www.w3.org/2000/svg">
<g clip-path="url(#clip0_5_2)" filter="url(#filter0_d_5_2)">
<path d="M4 0H1704V1200H4V0Z" fill="#FFD819"/>
<path d="M939.8 386.9C937.7 386.9 935.6 387.1 933.5 387.2C925.373 372.097 914.262 358.802 900.841 348.123C887.42 337.445 871.969 329.604 855.426 325.078C838.882 320.552 821.592 319.434 804.604 321.793C787.616 324.152 771.284 329.938 756.6 338.8C742.19 319.177 722.417 304.136 699.659 295.489C676.901 286.842 652.128 284.957 628.324 290.06C604.519 295.163 582.697 307.038 565.483 324.254C548.27 341.47 536.399 363.295 531.3 387.1C528.593 384.94 525.717 383 522.7 381.3C488.5 361.4 444 374.3 423.4 409.9C405 441.6 411.8 480.8 437.8 503C423.6 512.1 414.5 526 414.5 541.6C414.5 569 442.5 591.2 477.2 591.2C489.343 591.278 501.322 588.395 512.1 582.8C523.738 606.709 542.62 626.339 566.059 638.897C589.498 651.454 616.301 656.3 642.653 652.744C669.006 649.189 693.565 637.413 712.838 619.092C732.111 600.771 745.115 576.839 750 550.7C775.434 568.397 806.49 576.118 837.25 572.393C868.011 568.668 896.325 553.757 916.8 530.5C927.86 534.156 939.629 535.135 951.14 533.356C962.652 531.577 973.577 527.091 983.017 520.267C992.457 513.443 1000.14 504.476 1005.44 494.104C1010.74 483.731 1013.5 472.248 1013.5 460.6C1013.5 441.054 1005.74 422.308 991.914 408.486C978.092 394.665 959.346 386.9 939.8 386.9Z" fill="#EDC815"/>
<path d="M1214.9 311.8C1201.31 311.829 1188.06 316.093 1177 324C1169.65 309.093 1157.48 297.109 1142.46 289.993C1127.44 282.876 1110.45 281.046 1094.26 284.798C1078.07 288.551 1063.62 297.666 1053.26 310.664C1042.9 323.662 1037.24 339.78 1037.2 356.4C1037.21 360.723 1037.58 365.038 1038.3 369.3C1005.4 384.3 974.2 409.5 950.9 442.1H1214.9C1231.74 441.44 1247.67 434.288 1259.34 422.142C1271.02 409.996 1277.55 393.8 1277.55 376.95C1277.55 360.1 1271.02 343.904 1259.34 331.758C1247.67 319.612 1231.74 312.46 1214.9 311.8Z" fill="#EDC815"/>
<path d="M1039.5 617.4C1050.68 604.3 1058.8 588.874 1063.27 572.241C1067.74 555.609 1068.45 538.19 1065.34 521.25C1062.24 504.31 1055.39 488.276 1045.31 474.313C1035.23 460.349 1022.16 448.808 1007.06 440.529C991.96 432.25 975.202 427.44 958.009 426.45C940.815 425.459 923.616 428.313 907.664 434.804C891.711 441.295 877.406 451.259 865.788 463.973C854.17 476.686 845.531 491.829 840.5 508.3C822.558 496.574 801.755 489.97 780.335 489.2C758.915 488.43 737.692 493.524 718.955 503.932C700.217 514.34 684.678 529.667 674.013 548.259C663.348 566.851 657.962 588.002 658.437 609.431C658.912 630.859 665.229 651.752 676.707 669.853C688.185 687.955 704.388 702.578 723.567 712.146C742.747 721.714 764.175 725.863 785.54 724.146C806.905 722.428 827.395 714.909 844.8 702.4C851.045 715.327 860.823 726.22 873.002 733.82C885.182 741.419 899.265 745.413 913.621 745.34C927.977 745.267 942.018 741.129 954.119 733.406C966.221 725.682 975.887 714.69 982 701.7C987.535 705.476 993.76 708.124 1000.32 709.494C1006.88 710.864 1013.64 710.928 1020.23 709.684C1026.81 708.44 1033.08 705.911 1038.69 702.242C1044.3 698.573 1049.12 693.835 1052.9 688.3C1056.68 682.765 1059.32 676.54 1060.69 669.981C1062.06 663.423 1062.13 656.658 1060.88 650.075C1059.64 643.491 1057.11 637.217 1053.44 631.611C1049.77 626.004 1045.04 621.176 1039.5 617.4Z" fill="#DBB600"/>
<path d="M994 243.1H583.4C582.815 243.113 582.24 242.954 581.744 242.644C581.249 242.334 580.854 241.886 580.61 241.354C580.366 240.823 580.282 240.232 580.369 239.654C580.456 239.076 580.71 238.536 581.1 238.1C605.7 208.7 642.5 207.2 682.3 214.9C704.7 128.6 805.3 129.6 839.6 182.7C876.2 154.5 998.6 151.4 999.8 237.2C999.813 237.97 999.673 238.735 999.388 239.45C999.102 240.166 998.677 240.817 998.137 241.366C997.597 241.915 996.953 242.351 996.243 242.649C995.533 242.947 994.77 243.1 994 243.1Z" fill="#F1C800"/>
<path d="M61.9 530.5C151.1 485.4 214 520.3 214 520.3C258.1 506.6 297 516.2 317 531.9C329.5 541.6 301.5 539.9 238.7 539.9H64.2C62.8739 539.9 61.6021 539.373 60.6645 538.436C59.7268 537.498 59.2 536.226 59.2 534.9C59.196 533.988 59.4466 533.093 59.9236 532.316C60.4006 531.538 61.0851 530.909 61.9 530.5Z" fill="#C6A400"/>
<path d="M1529.8 824.6C1529.61 816.609 1526.67 808.928 1521.48 802.854C1516.28 796.78 1509.15 792.686 1501.29 791.263C1493.42 789.84 1485.3 791.177 1478.31 795.046C1471.32 798.916 1465.87 805.081 1462.9 812.5C1460.34 811.893 1457.73 811.591 1455.1 811.6C1449.8 811.605 1444.56 812.772 1439.76 815.018C1434.96 817.264 1430.7 820.534 1427.3 824.6H1529.8Z" fill="#B39400"/>
<path d="M288.3 406.3C283.6 384.2 285.9 378.2 270.3 357.4C265.3 350.7 242.5 352.1 232.3 354C220.2 356.7 207 373.1 207 373.1C217.4 429.4 225.9 423.6 229.2 442.1C232.5 460.6 229.1 468.4 250.1 468.4C271.1 468.4 285.8 459.4 278.9 441.3C290.5 437.6 292.7 427.2 288.3 406.3ZM130.5 328.4C126.1 376.4 142.5 374.1 190.9 355.3L130.5 328.4Z" fill="#A28600"/>
<path d="M370.5 370.5L327.3 402.5C329.6 403.8 330.9 403.9 333.4 402.5C335.9 401.1 341.6 394.5 344 392.7C346.4 390.9 353 387.2 356.4 385.3C360.441 382.981 364.171 380.159 367.5 376.9C370.2 373.9 371.2 372.9 370.5 370.5Z" fill="black"/>
<path d="M218.3 184.1C202.774 184.115 187.474 187.823 173.664 194.917C159.853 202.01 147.928 212.287 138.872 224.899C129.817 237.51 123.89 252.095 121.583 267.448C119.275 282.801 120.652 298.484 125.6 313.2L218.3 379.8C243.71 378.988 267.807 368.322 285.494 350.061C303.182 331.799 313.071 307.373 313.071 281.95C313.071 256.527 303.182 232.101 285.494 213.839C267.807 195.578 243.71 184.912 218.3 184.1Z" fill="#D6B100"/>
<path d="M246.3 291.3C237.2 287.3 236.9 287.4 231.2 279.6C225.5 271.8 219.2 268.6 212.2 268.6L227.6 329.3C246.2 332 256.3 321.4 257.7 312.1C259.1 302.8 255.4 295.3 246.3 291.3Z" fill="#9B851A"/>
<path d="M238.7 300.6C235.4 290.9 227.7 280.1 219.5 272.2C216.49 269.358 214.182 265.854 212.759 261.967C211.336 258.079 210.837 253.914 211.3 249.8L212.9 235.6C213.828 227.71 212.531 219.717 209.156 212.525C205.781 205.333 200.462 199.228 193.8 194.9C190.774 192.937 187.516 191.358 184.1 190.2C178.724 188.419 173.044 187.739 167.4 188.2C156.656 189.007 146.614 193.847 139.289 201.747C131.963 209.648 127.895 220.026 127.9 230.8C127.9 232.604 128 234.407 128.2 236.2L128.9 242L132.1 266.8C133.548 278.021 132.349 289.425 128.6 300.1C127.096 304.336 126.089 308.732 125.6 313.2L201.1 375.3C208.538 372.961 215.432 369.154 221.373 364.103C227.314 359.053 232.181 352.862 235.687 345.897C239.193 338.931 241.266 331.334 241.784 323.553C242.301 315.773 241.252 307.968 238.7 300.6Z" fill="#9B851A"/>
<path d="M201.1 375.3C208.538 372.961 215.432 369.154 221.373 364.103C227.314 359.053 232.181 352.862 235.687 345.897C239.193 338.931 241.266 331.334 241.784 323.553C242.301 315.773 241.252 307.968 238.7 300.6C235.4 290.9 227.7 280.1 219.5 272.2" stroke="black" stroke-width="2.201" stroke-miterlimit="10" stroke-linecap="round"/>
<path d="M217.4 305.8C222.6 294.4 225.3 295.4 237 296.8C246.3 297.9 258.9 315 246 326.3C233.1 337.6 203.8 336 217.4 305.8Z" fill="#9B851A"/>
<path d="M180.4 280.3C182.057 280.3 183.4 278.957 183.4 277.3C183.4 275.643 182.057 274.3 180.4 274.3C178.743 274.3 177.4 275.643 177.4 277.3C177.4 278.957 178.743 280.3 180.4 280.3Z" fill="black"/>
<path d="M198 279C199.657 279 201 277.657 201 276C201 274.343 199.657 273 198 273C196.343 273 195 274.343 195 276C195 277.657 196.343 279 198 279Z" fill="black"/>
<path d="M198 276C214.1 286 208.9 295.6 222.9 311.8" stroke="white" stroke-width="2.7" stroke-miterlimit="10" stroke-linecap="round"/>
<path d="M184.3 305.5C192.7 297.8 195.2 295.7 198.6 295.4C202 295.1 207.8 294.9 207.8 294.9L209.4 331.6L186.6 334.2L184.3 305.5Z" fill="#FFC619"/>
<path d="M227.5 290C227.608 289.504 227.601 288.989 227.478 288.496C227.355 288.003 227.12 287.545 226.791 287.158C226.461 286.771 226.047 286.465 225.581 286.264C225.114 286.063 224.607 285.973 224.1 286H208.6C207.471 286.008 206.381 286.413 205.522 287.144C204.662 287.876 204.088 288.887 203.9 290L198.7 322.9C198.609 323.402 198.633 323.919 198.769 324.411C198.906 324.903 199.151 325.358 199.487 325.742C199.823 326.127 200.242 326.43 200.712 326.631C201.181 326.831 201.69 326.923 202.2 326.9H217.7C218.818 326.855 219.889 326.437 220.741 325.712C221.593 324.986 222.177 323.996 222.4 322.9L227.5 290Z" fill="black"/>
<path d="M226.5 286.9L228.3 288.6L223.8 289.7L226.5 286.9Z" fill="black"/>
<path d="M236.2 306.9C234 304 231.7 300.2 226.4 300.2V306.9H236.2Z" fill="#FFC619"/>
<path d="M229.2 291.6C229.29 291.097 229.267 290.581 229.13 290.089C228.994 289.597 228.749 289.142 228.413 288.758C228.076 288.373 227.658 288.07 227.188 287.869C226.719 287.669 226.21 287.577 225.7 287.6H210.2C209.082 287.645 208.011 288.063 207.159 288.788C206.307 289.513 205.723 290.504 205.5 291.6L200.4 324.4C200.291 324.896 200.299 325.411 200.422 325.904C200.545 326.397 200.78 326.855 201.109 327.242C201.438 327.629 201.852 327.935 202.319 328.136C202.786 328.337 203.293 328.427 203.8 328.4H219.3C220.429 328.392 221.518 327.987 222.378 327.255C223.237 326.524 223.812 325.513 224 324.4L229.2 291.6Z" fill="white"/>
<path d="M225.9 304.8H232.2C233.482 304.8 234.714 305.302 235.63 306.2C236.546 307.097 237.074 308.318 237.1 309.6C237.127 310.26 237.02 310.919 236.786 311.537C236.552 312.154 236.195 312.718 235.737 313.195C235.28 313.671 234.73 314.05 234.122 314.309C233.514 314.567 232.861 314.701 232.2 314.7H227.6C226.141 314.694 224.726 314.198 223.584 313.291C222.441 312.384 221.637 311.119 221.3 309.7C220.9 307 222.9 304.8 225.9 304.8Z" fill="#FFC619"/>
<path d="M224.8 314.4H229.2C229.918 314.402 230.627 314.563 231.277 314.87C231.926 315.177 232.5 315.622 232.958 316.176C233.416 316.729 233.747 317.377 233.927 318.072C234.107 318.767 234.132 319.494 234 320.2C233.809 321.33 233.22 322.354 232.34 323.088C231.46 323.822 230.346 324.216 229.2 324.2H226.5C225.055 324.2 223.65 323.718 222.509 322.831C221.368 321.943 220.556 320.701 220.2 319.3C219.8 316.6 221.8 314.4 224.8 314.4Z" fill="#FFC619"/>
<path d="M198 325.9H213.2V331.94H198V325.9Z" fill="#FFC619"/>
<path d="M214.1 307.3H204.6C204.135 307.317 203.675 307.192 203.282 306.942C202.89 306.692 202.582 306.329 202.4 305.9L201.3 303.5L200.1 298.6L196.8 317.1H212.4C213.845 317.1 215.25 316.618 216.391 315.731C217.532 314.843 218.344 313.601 218.7 312.2C219.1 309.5 217.1 307.3 214.1 307.3Z" fill="#FFC619"/>
<path d="M212.1 317.1H196.8L198.7 327H210.4C213.3 327 216.2 324.8 216.6 322.1C217 319.4 215.1 317.1 212.1 317.1Z" fill="#FFC619"/>
<path d="M324.7 362.9C323.6 348 310.9 347.4 301.9 343.3C292.9 339.2 281.8 329.7 270.6 323.6C259.4 317.5 250.4 319.2 233.5 327L257.7 363C269.8 367.2 272.9 373.1 280 380.9C287.1 388.7 295.5 390.7 303.6 388.1C308.6 394.4 309.6 395.9 315.5 392.9C321.4 389.9 331.3 383.6 333.2 375.2C335.1 366.8 330.8 365.8 324.7 362.9Z" fill="#66BCFF"/>
<path d="M317.1 388H317C311.7 387.4 309.2 384.8 305.4 380.8C304.5 379.7 303.4 378.6 302.1 377.3C287.5 376.4 280.8 369.6 277 364.6C275.3 362.2 272.3 360.6 269.4 358.9C266.5 357.2 263.8 355.7 261.9 353.4C260.506 351.737 259.299 349.926 258.3 348C256.8 345.4 255.7 343.5 253.8 343.3C251.9 343.1 249 344.5 246.2 346.2C243.699 347.815 241.013 349.125 238.2 350.1C237.974 350.163 237.734 350.135 237.528 350.023C237.323 349.911 237.169 349.723 237.1 349.5C237.053 349.389 237.032 349.269 237.038 349.149C237.044 349.028 237.077 348.911 237.134 348.805C237.192 348.699 237.273 348.608 237.371 348.538C237.469 348.468 237.581 348.421 237.7 348.4C240.339 347.472 242.857 346.229 245.2 344.7C248.3 342.8 251 341.2 254 341.5C257 341.8 258.2 344.3 259.8 347.1C260.838 348.894 261.973 350.63 263.2 352.3C264.9 354.3 267.6 355.8 270.3 357.4C273 359 276.5 360.9 278.5 363.5C282.3 368.7 288.6 374.8 302.6 375.5H302.9L303.2 375.7L306.7 379.4C310.3 383.3 312.5 385.6 317.2 386.1C317.318 386.112 317.433 386.148 317.538 386.205C317.642 386.263 317.734 386.34 317.809 386.433C317.883 386.526 317.938 386.633 317.971 386.747C318.004 386.862 318.014 386.982 318 387.1C317.962 387.325 317.854 387.532 317.693 387.693C317.532 387.855 317.325 387.962 317.1 388Z" fill="#45AAF7"/>
<path d="M254.4 340.3C253.207 346.425 252.704 352.663 252.9 358.9" stroke="black" stroke-width="2.201" stroke-miterlimit="10" stroke-linecap="round"/>
<path d="M270.6 410.7C259.2 423.8 248.1 422.2 243.1 422.3C238.1 422.4 238.2 418.8 237.4 415.9C236.6 413 235.9 408.3 235.9 408.3C223.2 409.3 220.7 401 219.6 393.4C218.8 387.6 216.4 385 214.9 379.8C199.57 379.282 184.576 375.165 171.131 367.782C157.685 360.4 146.165 349.958 137.5 337.3L149.7 325.9L181 340.6C200 330.6 210.6 325.3 221.1 323C231.6 320.7 242.7 323.4 247.7 337.6C252.7 351.8 253.7 356.4 257.7 363L262.1 369.4C266.9 376.7 272.2 387.1 265.6 400.3C266.981 403.897 268.653 407.375 270.6 410.7Z" fill="#8CD9FF"/>
<path d="M162.1 362C160.5 352.3 163.6 344.9 170.2 342.8L151.7 333.5L140 340.5C146.16 348.811 153.623 356.071 162.1 362Z" fill="black"/>
<path d="M246.8 416.8V415C244.3 414.9 243.9 413.1 242.3 404.7L242.1 403.6H241.4C235.7 403 231.6 400.3 230.1 389.1C229.543 383.81 227.873 378.698 225.2 374.1C224.604 372.997 224.07 371.862 223.6 370.7C223.2 369.6 222.7 368.6 222.3 367.6C220.288 363.934 219.352 359.774 219.6 355.6C219.7 351.2 219.1 349 217.5 348C215.9 347 212.7 347.7 207.7 350.1L207 350.4C199.2 354.2 183.5 361.7 167.1 365.4L169.4 366.8C185.2 362.9 200.2 355.7 207.8 352L208.5 351.7C212.4 349.8 215.3 348.7 216.6 349.5C217.9 350.3 217.9 352 217.8 355.5C217.599 359.97 218.564 364.416 220.6 368.4C221.1 369.4 221.5 370.3 221.9 371.3C222.418 372.571 223.02 373.807 223.7 375C225.3 377.9 227.2 381.5 228.3 389.4C229.7 399.6 233.3 404.3 240.5 405.3C242.1 413.5 242.7 416.6 246.8 416.8Z" fill="#66BCFF"/>
<path d="M184.3 303.5C180 300.6 176.9 301.3 172.3 304C166.6 300.2 159.9 300.4 153.2 303.8C148.3 306.2 136.3 311.6 130.3 314.3C129.96 314.444 129.588 314.495 129.222 314.449C128.856 314.403 128.508 314.261 128.214 314.038C127.92 313.815 127.69 313.519 127.547 313.178C127.404 312.838 127.353 312.466 127.4 312.1L130.2 294.9C116.7 308 114.4 332.2 120.5 344.4C126.6 356.6 147.1 353.5 153.2 349.1C159.3 344.7 161.4 343.1 169 343.5C176.6 343.9 182.6 343.9 191.5 335.1L197.1 332.3C198 319.4 195 310.7 184.3 303.5Z" fill="#9B851A"/>
<path d="M184.3 303.5C180 300.6 176.9 301.3 172.3 304C166.6 300.2 159.9 300.4 153.2 303.8C148.3 306.2 136.3 311.6 130.3 314.3M173.3 304.5C185.8 312.2 189.4 322.2 190.9 328.9" stroke="black" stroke-width="2.201" stroke-miterlimit="10" stroke-linecap="round"/>
<path d="M259.6 258.2H242.5C242.304 258.198 242.114 258.269 241.967 258.398C241.819 258.527 241.724 258.706 241.7 258.9L239.5 272.8C239.458 272.965 239.47 273.139 239.534 273.297C239.599 273.455 239.711 273.588 239.856 273.677C240.001 273.766 240.171 273.807 240.341 273.793C240.51 273.779 240.671 273.712 240.8 273.6L260.1 259.7C260.27 259.613 260.403 259.467 260.475 259.29C260.547 259.114 260.553 258.917 260.493 258.736C260.432 258.555 260.309 258.401 260.145 258.303C259.982 258.204 259.788 258.168 259.6 258.2Z" fill="white"/>
<path d="M298.9 262.9C309.3 262.9 319.2 254.5 320.8 244.2V243.7C322.5 233.5 315.2 225 304.8 225H247C236.6 225 226.7 233.5 225.1 243.7V244.2C223.4 254.5 230.6 262.9 241.1 262.9H298.9Z" fill="white"/>
<path d="M244.3 251.8C246.45 251.725 248.512 250.923 250.147 249.524C251.782 248.125 252.894 246.213 253.3 244.1V243.9C253.5 242.941 253.478 241.949 253.234 240.999C252.991 240.05 252.532 239.17 251.895 238.426C251.257 237.682 250.457 237.095 249.556 236.709C248.656 236.323 247.679 236.149 246.7 236.2C244.544 236.256 242.473 237.052 240.835 238.454C239.196 239.856 238.089 241.779 237.7 243.9V244.1C237.52 245.057 237.557 246.042 237.808 246.982C238.06 247.922 238.519 248.794 239.152 249.534C239.786 250.273 240.577 250.86 241.468 251.252C242.359 251.645 243.327 251.832 244.3 251.8Z" fill="#8CD9FF"/>
<path d="M271.7 251.8C273.845 251.708 275.897 250.899 277.529 249.503C279.16 248.108 280.277 246.205 280.7 244.1V243.9C280.88 242.943 280.843 241.958 280.592 241.018C280.34 240.077 279.881 239.205 279.247 238.466C278.614 237.727 277.822 237.14 276.932 236.748C276.041 236.355 275.073 236.168 274.1 236.2C271.944 236.256 269.873 237.052 268.235 238.454C266.596 239.856 265.489 241.779 265.1 243.9V244.1C264.92 245.057 264.957 246.042 265.208 246.982C265.459 247.922 265.919 248.794 266.552 249.534C267.186 250.273 267.977 250.86 268.868 251.252C269.759 251.645 270.727 251.832 271.7 251.8Z" fill="#66BCFF"/>
<path d="M299 251.8C301.156 251.744 303.227 250.948 304.865 249.546C306.504 248.144 307.611 246.221 308 244.1V243.9C308.18 242.943 308.143 241.958 307.892 241.018C307.641 240.077 307.181 239.205 306.548 238.466C305.914 237.727 305.123 237.14 304.232 236.748C303.341 236.355 302.373 236.168 301.4 236.2C299.244 236.256 297.173 237.052 295.535 238.454C293.896 239.856 292.789 241.779 292.4 243.9V244.1C292.222 245.048 292.257 246.024 292.503 246.957C292.748 247.89 293.199 248.757 293.821 249.494C294.444 250.231 295.222 250.82 296.101 251.219C296.979 251.618 297.935 251.817 298.9 251.8H299Z" fill="#8CD9FF"/>
<path d="M213.8 294.1C213.828 293.895 213.813 293.687 213.757 293.488C213.7 293.289 213.603 293.104 213.472 292.944C213.34 292.784 213.177 292.654 212.993 292.56C212.808 292.466 212.606 292.412 212.4 292.4H211C210.606 292.428 210.231 292.578 209.926 292.829C209.622 293.079 209.403 293.419 209.3 293.8L208.6 298.5C208.572 298.705 208.587 298.913 208.643 299.112C208.7 299.311 208.797 299.496 208.928 299.656C209.06 299.816 209.223 299.946 209.407 300.04C209.592 300.134 209.793 300.188 210 300.2H211.4C211.786 300.183 212.155 300.035 212.446 299.781C212.737 299.526 212.932 299.18 213 298.8L213.8 294.1Z" fill="#29CC7A"/>
<path d="M188.6 270.7C189.5 268.41 190.902 266.35 192.701 264.672C194.501 262.994 196.653 261.739 199 261C199.2 261 199.3 260.8 199.2 260.6C196.7 254.2 197.2 250.3 199 245.2C199 245 198.9 244.8 198.7 244.8C190.6 242.6 187 237.6 185.8 233.5C185.765 233.437 185.715 233.385 185.653 233.349C185.592 233.313 185.521 233.294 185.45 233.294C185.378 233.294 185.308 233.313 185.247 233.349C185.185 233.385 185.135 233.437 185.1 233.5C182.4 240.8 177.8 241.7 173.7 241.8C173.636 241.78 173.567 241.782 173.504 241.806C173.441 241.83 173.388 241.874 173.353 241.932C173.319 241.99 173.304 242.057 173.313 242.124C173.321 242.191 173.352 242.253 173.4 242.3C178.2 249.4 176.1 255.3 172.5 259.7C172.42 259.727 172.355 259.784 172.317 259.859C172.28 259.934 172.273 260.02 172.3 260.1C172.326 260.18 172.383 260.245 172.458 260.283C172.534 260.32 172.62 260.326 172.7 260.3C180.7 260.5 185.4 265 188 270.7C188 270.78 188.032 270.856 188.088 270.912C188.144 270.968 188.22 271 188.3 271C188.379 271 188.456 270.968 188.512 270.912C188.568 270.856 188.6 270.78 188.6 270.7Z" fill="#FFC619"/>
<path d="M212.1 317.1H204" stroke="black" stroke-width="2.201" stroke-miterlimit="10" stroke-linecap="round"/>
<path d="M226.4 314.7H230.9" stroke="black" stroke-width="2.201" stroke-miterlimit="10" stroke-linecap="round"/>
<path d="M185.4 233.3C188.1 225 187.2 219.7 186 216.8M198.1 245.2C203.6 244.9 207 243.1 209.9 240M188.6 270.7C188.724 271.73 188.724 272.77 188.6 273.8M173.1 259.7C168.4 264.1 160.6 264.6 155 263.7M173.7 241.8C171.3 238.1 167.2 234.1 163.7 232.9M199.2 260.6C201.117 261.233 203.094 261.668 205.1 261.9" stroke="black" stroke-width="2.201" stroke-miterlimit="10" stroke-linecap="round"/>
<path d="M182.7 247.8C186.2 256.6 189.2 255.7 190.2 252.8C191.2 249.9 191.9 246.2 194.2 246.2C196.5 246.2 196.2 250 194.2 255.9C192.2 261.8 188.1 263.7 183.5 259.5C178.9 255.3 178.3 250.5 177.8 247.2C177.3 243.9 180.7 242.7 182.7 247.8Z" fill="#C40655"/>
<path d="M180.4 277.3C184.2 296.1 175.4 306.5 174.6 325.9" stroke="white" stroke-width="2.7" stroke-miterlimit="10" stroke-linecap="round"/>
<path d="M213.9 378.5C209.101 367.414 208.814 354.894 213.1 343.6M210.1 360C207.2 356.3 206.8 350.5 206.8 350.5" stroke="black" stroke-width="2.201" stroke-miterlimit="10" stroke-linecap="round"/>
<path d="M135.5 312L125.6 316.7" stroke="black" stroke-width="2.201" stroke-miterlimit="10" stroke-linecap="round"/>
<path d="M238.5 296.5L244.2 297.4" stroke="black" stroke-width="2.201" stroke-miterlimit="10" stroke-linecap="round"/>
<path d="M370.6 370.3C369.94 371.533 369.17 372.705 368.3 373.8C364.3 378.8 354.8 385.2 349.6 388C344.4 390.8 342.9 392 339.2 395.8C335.5 399.6 331.1 404.6 327.3 402.5C323.5 400.4 317.6 395 313.9 391.1C313.686 390.879 313.535 390.605 313.465 390.305C313.394 390.006 313.407 389.693 313.5 389.4C314.9 383.6 320.2 374.9 328.7 369.5C328.977 369.351 329.286 369.273 329.6 369.273C329.914 369.273 330.223 369.351 330.5 369.5C336.2 372.5 339.5 373 343.8 372.3C350.2 371.4 356.1 367.6 362.6 364.7C369.1 361.8 369.7 364.9 370.6 370.3Z" fill="#D11583"/>
<path d="M318.4 395.5C321.177 398.065 324.153 400.406 327.3 402.5C331.1 404.6 335.6 399.6 339.2 395.8C342.8 392 344.4 390.9 349.6 388C354.8 385.1 364.3 378.8 368.3 373.8C369.17 372.705 369.94 371.533 370.6 370.3C369.7 364.9 368.1 362.3 362.6 364.7C357.1 367.1 354.2 369 350 370.6C348.81 371.093 347.779 371.904 347.02 372.945C346.261 373.986 345.804 375.216 345.7 376.5C345.6 378 345.6 379.6 345.6 381.4C337.9 381 331 384.4 330.5 394.4C330.5 394.4 323.7 391.9 318.4 395.5Z" fill="#FFEA83"/>
<path d="M368.3 373.8C369.102 372.747 369.837 371.645 370.5 370.5C370.605 370.358 370.677 370.195 370.711 370.022C370.746 369.849 370.742 369.671 370.7 369.5C370.547 368.434 370.172 367.412 369.6 366.5C368.7 368.8 367.1 371.1 363.1 374.9C356.8 380.8 349.4 383.6 345 385.9C340.99 387.951 337.475 390.852 334.7 394.4C332.42 397.559 329.303 400.018 325.7 401.5L327.3 402.5C331.1 404.6 335.6 399.6 339.2 395.8C342.8 392 344.4 390.9 349.6 388C354.8 385.1 364.3 378.8 368.3 373.8Z" fill="#FFE75C"/>
<path d="M284.6 391.8C277.3 390.9 270.5 395.2 265.4 408.1C263.5 407 258.9 406.1 252.3 408.3C245.7 410.5 243.7 413.6 242.8 416.1C242.303 417.456 242.303 418.944 242.8 420.3C243.3 421.9 244.1 424.2 245.4 428C247.4 433.8 247.2 439.1 250.7 439.2L293.5 399.3C293.5 399.3 294 393 284.6 391.8Z" fill="#D11583"/>
<path d="M284.6 391.8C277.3 390.9 270.5 395.2 265.4 408.1C264.8 409.7 264.2 411.7 263.6 413.9C256.3 414.3 253.2 417.9 252.8 425.1C252.8 425.1 247.5 422.6 245 426.8C245.1 427.2 245.3 427.6 245.4 428C247.4 433.8 247.2 439.1 250.7 439.2L293.5 399.3C293.5 399.3 294 393 284.6 391.8Z" fill="#FFEA83"/>
<path d="M293.1 397.3L289.3 394.7C283.3 394.5 278.3 395 273.7 401.7C269.1 408.4 266.4 415.3 261.3 420C254 426.9 247.7 430.2 247.1 434.6C247.8 437.3 248.6 439.1 250.7 439.2L293.5 399.3C293.473 398.616 293.338 397.941 293.1 397.3Z" fill="#FFE75C"/>
<path d="M286.6 392.9L290.1 393.4C290.395 393.408 290.684 393.484 290.944 393.623C291.205 393.762 291.429 393.959 291.6 394.2C293.2 395.9 293.8 398.6 293.8 401.2L281.4 400.7C285.3 398.2 286.4 396.1 285.8 393.9C285.737 393.78 285.711 393.644 285.724 393.509C285.737 393.374 285.789 393.245 285.874 393.139C285.959 393.033 286.073 392.954 286.201 392.912C286.33 392.869 286.469 392.865 286.6 392.9Z" fill="#D11583"/>
<path d="M250.9 439.2C263 439.9 267.9 435.5 272.4 429.5C274.319 426.914 276.572 424.594 279.1 422.6C285.7 417.5 290.8 412.5 293.8 405.2C297.6 396 284.8 395.2 278 402.4C271.2 409.6 271.6 417 257.8 428.2C248.4 435.9 247.3 439 250.9 439.2Z" fill="black"/>
<path d="M248.355 419.858C249.237 419.822 249.908 418.675 249.853 417.295C249.798 415.916 249.037 414.826 248.154 414.862C247.271 414.897 246.6 416.044 246.656 417.424C246.711 418.803 247.472 419.893 248.355 419.858Z" fill="white"/>
<path d="M370.9 368.6C370.454 367.248 369.814 365.968 369 364.8C369.013 364.747 369.005 364.691 368.977 364.644C368.949 364.597 368.903 364.563 368.85 364.55C368.797 364.537 368.741 364.545 368.694 364.573C368.647 364.601 368.613 364.647 368.6 364.7H368.4C368.33 364.739 368.274 364.798 368.239 364.869C368.203 364.941 368.19 365.021 368.2 365.1C369.2 367.9 369.8 371.1 368.6 373.3C371.5 370.4 370.9 369.1 370.9 368.6Z" fill="#D11583"/>
<path d="M322.824 390.538C324.084 390.127 324.605 388.261 323.987 386.371C323.369 384.481 321.847 383.283 320.587 383.695C319.327 384.107 318.807 385.972 319.425 387.862C320.042 389.752 321.564 390.95 322.824 390.538Z" fill="white"/>
<path d="M294.1 1034.3C276.231 1034.3 258.93 1028.02 245.221 1016.56C231.511 1005.1 222.266 989.186 219.1 971.6C213.1 937.9 207.1 911.2 198.6 888.8L338.6 837.5C345.2 860.1 355.3 889.6 367.9 939.5C380 987.6 343.7 1034.3 294.1 1034.3Z" fill="#BBA225"/>
<path d="M492.9 731.9C488.2 725.9 486.2 726.9 482.7 726.9C482.7 721 479.9 720.5 478.6 725.4C477.3 730.3 476.5 732.6 479.7 737.3C482.9 742 487.2 748.9 489.1 757.1C484.56 758.334 480.087 759.802 475.7 761.5L483.5 779.6C496.5 773.8 504.1 768.8 504.9 758.4C505.7 748 497.7 738 492.9 731.9Z" fill="#FFC619"/>
<path d="M354.2 707.9C364.6 708 372.4 708.4 383.4 711.9C387.128 713.058 390.385 715.385 392.69 718.536C394.995 721.687 396.226 725.496 396.2 729.4V769.4H392.2L390.1 766.1V734.6C390.117 730.969 388.914 727.437 386.683 724.572C384.453 721.707 381.324 719.674 377.8 718.8C371.26 717.234 364.606 716.198 357.9 715.7L352.9 708L354.2 707.9Z" fill="#BDE9FF"/>
<path d="M399 802.7C397.989 802.7 396.987 802.501 396.053 802.114C395.119 801.727 394.27 801.16 393.555 800.445C392.84 799.73 392.273 798.881 391.886 797.947C391.499 797.012 391.3 796.011 391.3 795V754.7C391.3 752.658 392.111 750.699 393.555 749.255C394.999 747.811 396.958 747 399 747C401.573 747 404.04 748.022 405.859 749.841C407.678 751.66 408.7 754.127 408.7 756.7V793C408.7 794.274 408.449 795.535 407.962 796.712C407.474 797.889 406.76 798.958 405.859 799.859C404.958 800.76 403.889 801.474 402.712 801.962C401.535 802.449 400.274 802.7 399 802.7Z" fill="black"/>
<path d="M275.2 918.9C337.443 918.9 387.9 868.443 387.9 806.2C387.9 743.958 337.443 693.5 275.2 693.5C212.958 693.5 162.5 743.958 162.5 806.2C162.5 868.443 212.958 918.9 275.2 918.9Z" fill="#9C8A2F"/>
<path d="M167.8 772C160.109 796.206 160.813 822.298 169.796 846.054C178.78 869.811 195.517 889.84 217.3 902.9C226.249 891.912 232.155 878.766 234.426 864.778C236.698 850.791 235.255 836.451 230.243 823.196C225.23 809.941 216.824 798.236 205.866 789.251C194.907 780.266 181.78 774.317 167.8 772Z" fill="#039C78"/>
<path d="M183.8 785.6C176.4 782.8 175.3 781.5 173.5 778C171.7 774.5 170.7 775.2 167 774.7C166.7 775.7 166.4 776.6 166.2 777.6C181 787.3 185.1 808.3 185.1 808.3L191.3 805.4C191.3 805.4 191.3 788.3 183.8 785.6Z" fill="#FA94C4"/>
<path d="M164.3 826.5C168.884 851.378 181.704 873.99 200.698 890.698C219.692 907.406 243.755 917.238 269.014 918.612C294.273 919.986 319.26 912.821 339.954 898.272C360.648 883.723 375.845 862.634 383.1 838.4L264.7 789C237.9 781.6 191.3 778.9 164.3 826.5Z" fill="url(#paint0_linear_5_2)"/>
<path d="M351.9 887.4C328.7 887.4 286.5 891.9 261.8 864C279.7 884.2 288.1 899.4 288.7 918C312.305 915.159 334.399 904.9 351.8 888.7L351.9 887.4Z" fill="black"/>
<path d="M179.8 806.2C193.7 792.5 233.1 782.8 265.2 806.2L277.6 793.1C276.6 771.5 271.8 770.2 265.2 777.1C258.6 784 257.2 777.8 250.7 766.1C244.2 754.4 236 752.2 230.1 764.2C224.2 776.2 225.5 776.6 220.6 774.9C215.7 773.2 206.6 768.8 199 767.7C191.4 766.6 187.8 777.4 188.5 785.6C189.2 793.8 187.1 793.5 183.2 791.9C179.3 790.3 178.3 795.3 179.8 806.2Z" fill="#FFEA83"/>
<path d="M238.4 790.9C239.965 780.976 240.2 770.887 239.1 760.9M196 772C201.8 784 202.8 790 202.8 790" stroke="#FF5CB4" stroke-width="2.289" stroke-miterlimit="10" stroke-linecap="round"/>
<path d="M502.5 806.2C505.9 795.2 506.9 795 484.3 795.9C463.5 796.7 437.2 797.5 413.1 799.3C411.9 784.7 407.2 778.9 401.9 771.3C403.9 747.2 399.5 723.8 375.6 718.1C351.7 712.4 316.5 711.2 293.1 719.9C269.7 728.6 276.3 762.1 278.8 784.8C278.8 784.8 258.1 791.5 250.3 812C243.8 829.3 246.9 849.9 265.4 867.7C295.1 896.3 325 899.4 353.3 896.1C375.3 893.4 386.4 876.6 389.5 860.3C429.8 875.4 455.4 852.7 464.3 841.8C474.8 829.2 489.7 825.1 498.7 821.2C507.7 817.3 511.5 813.8 502.5 806.2Z" fill="#2AD17D"/>
<path d="M306 681.8C297.5 681.3 288.5 686.9 294.5 703C285.3 702.1 276.1 707.2 282.6 722.3L324.9 707.9C321.2 689.3 314.5 682.4 306 681.8Z" fill="#FFEA83"/>
<path d="M304.1 760.1C304.1 749.772 295.728 741.4 285.4 741.4C275.072 741.4 266.7 749.772 266.7 760.1V789.59C266.7 799.918 275.072 808.29 285.4 808.29C295.728 808.29 304.1 799.918 304.1 789.59V760.1Z" fill="black"/>
<path d="M359.6 709.2V715.2C342 712.9 320.2 712.7 302.3 717.1C298.793 718.006 295.684 720.047 293.459 722.905C291.234 725.763 290.017 729.278 290 732.9V767.7H268.2V731.5C268.197 726.304 270.032 721.275 273.382 717.304C276.731 713.332 281.378 710.674 286.5 709.8C318.9 704.1 341.4 706.3 359.6 709.2Z" fill="white"/>
<path d="M325.9 706.3C315.5 706.3 307.7 706.8 296.7 710.2C292.988 711.386 289.749 713.719 287.449 716.864C285.148 720.009 283.906 723.804 283.9 727.7V767.7H287.9L290 764.5V732.9C290.017 729.278 291.234 725.763 293.459 722.905C295.684 720.047 298.793 718.006 302.3 717.1C308.842 715.568 315.497 714.565 322.2 714.1L327.2 706.3H325.9Z" fill="#BDE9FF"/>
<path d="M420.6 804.3C396.2 805.5 369.2 807.1 359.4 807.5C349.6 807.9 343.8 808.2 342.1 812.9C340.4 817.6 353.8 818.3 370.7 819.4C387.6 820.5 425.7 820.3 447.7 819.4C463.958 818.848 480.179 817.48 496.3 815.3C506.6 813.8 496.8 807 496.8 807C496.8 807 500.7 800.8 495.1 800.1C489.5 799.4 420.6 804.3 420.6 804.3Z" fill="#039C78"/>
<path d="M395.1 813.6C396.1 799 401.7 798.2 404.1 802.1C405.646 804.5 406.794 807.134 407.5 809.9C408.053 809.602 408.672 809.447 409.3 809.447C409.928 809.447 410.547 809.602 411.1 809.9C411.765 810.272 412.325 810.806 412.728 811.453C413.13 812.1 413.361 812.839 413.4 813.6H395.1ZM361.8 812.3C365.3 802.2 372.5 804.1 377.5 806.4C378.887 806.967 380.084 807.917 380.952 809.139C381.819 810.36 382.322 811.804 382.4 813.3L361.8 812.3ZM350.7 811.9C353.4 801.5 356.2 802.2 357.1 806.2C358 810.2 358.3 812.3 358.3 812.3L350.7 811.9Z" fill="white"/>
<path d="M492.2 808.6C477.6 810.9 451.1 813.2 417.1 813.6C416.2 805.2 418.8 797.9 429.1 789.9C433.6 786.4 433.2 783.8 432.8 781.5C431.5 773.2 428.3 764.9 423.5 754.2C416.2 737.7 415.3 724.1 427.4 716.7C439.5 709.3 453.4 713.5 462.7 727.2C472 740.9 492.5 771 492.2 808.6Z" fill="#FFC619"/>
<path d="M451.4 734.6C460.4 743.1 463.8 742.1 465.8 741.6C467.8 741.1 466.1 736 465 733.7L451.4 734.6Z" fill="#FFAE00"/>
<path d="M472.2 811C478.1 800 481.2 796.9 484.8 798.1C488.4 799.3 488.1 809.2 488.1 809.2L472.2 811ZM451.9 812.5C456.7 796.1 462.6 798.2 464.6 800.9C466.6 803.6 468.6 811.3 468.6 811.3L451.9 812.5ZM436.7 746.5C437.4 750.6 436 754 433.9 754.5C431.8 755 429.8 752.9 428.6 749.7C427.4 746.5 427.8 741.3 430 739.9C432.2 738.5 435.8 741.5 436.7 746.5Z" fill="white"/>
<path d="M451.4 734.6C448.9 731.5 450.3 725.8 453.4 720.6C456.5 715.4 460.8 713.6 464.4 713.6C468 713.6 469.1 717.2 464.9 727.2C470.2 726.3 472.6 726.4 473.1 729.3C473.6 732.2 470.1 734.3 462.2 735.6C454.3 736.9 452.8 736.3 451.4 734.6Z" fill="#ED5F00"/>
<path d="M482.5 726.3C483.9 722.5 485.5 722.1 486.3 722.5C487.1 722.9 486.9 724.7 486.1 728.3C485.3 731.9 481.2 729.8 482.5 726.3Z" fill="#FFC619"/>
<path d="M485.4 726.9C488.5 724.3 490.1 724.6 490.6 725.4C491.1 726.2 490.1 727.6 487.7 730.4C485.3 733.2 482.6 729.3 485.4 726.9Z" fill="#FFC619"/>
<path d="M347 773.8C353.3 773.9 355.7 772.8 356.4 770.2C357.1 767.6 352.9 762.1 344.3 761.5C335.7 760.9 329.9 764.9 328.6 770.1C327.3 775.3 330.1 774.2 336 773.9C339.66 773.621 343.335 773.587 347 773.8ZM382.3 773.8C377.1 773.9 375.2 772.8 374.6 770.2C374 767.6 377.4 762.1 384.4 761.5C391.4 760.9 396.2 764.9 397.2 770.1C398.2 775.3 395.9 774.2 391.2 773.9C388.241 773.62 385.264 773.587 382.3 773.8Z" fill="white"/>
<path d="M272.1 747H276.6C280.154 747 283.562 748.412 286.075 750.925C288.588 753.438 290 756.846 290 760.4V789.3C290 792.854 288.588 796.262 286.075 798.775C283.562 801.288 280.154 802.7 276.6 802.7H272.1C269.881 802.7 267.683 802.263 265.633 801.414C263.582 800.564 261.719 799.319 260.15 797.75C258.581 796.181 257.336 794.318 256.486 792.267C255.637 790.217 255.2 788.019 255.2 785.8V763.9C255.2 761.681 255.637 759.483 256.486 757.433C257.336 755.382 258.581 753.519 260.15 751.95C261.719 750.381 263.582 749.136 265.633 748.286C267.683 747.437 269.881 747 272.1 747Z" fill="#BDE9FF"/>
<path d="M271 747H283.9V789.8C283.9 793.221 282.541 796.502 280.122 798.922C277.702 801.341 274.421 802.7 271 802.7C266.81 802.7 262.791 801.035 259.828 798.072C256.865 795.109 255.2 791.09 255.2 786.9V762.8C255.2 758.61 256.865 754.591 259.828 751.628C262.791 748.665 266.81 747 271 747Z" fill="white"/>
<path d="M366.2 739.8C358.9 739.8 356.4 737.8 351.2 730.9C346 724 339.7 713.4 322.4 714C311.3 698.3 316 679.6 327.1 670.4C338.2 661.2 360.5 661.2 368.5 675.6C372.8 683.2 374.5 691.5 371.6 706.3C381 703.6 384.6 710 383.2 718C381.8 726 375.2 739.8 366.2 739.8Z" fill="#FFEA83"/>
<path d="M269 764.2H268.9C266.856 764.2 265.2 765.857 265.2 767.9V781.93C265.2 783.973 266.856 785.63 268.9 785.63H269C271.043 785.63 272.7 783.973 272.7 781.93V767.9C272.7 765.857 271.043 764.2 269 764.2Z" fill="#FF78B9"/>
<path d="M386.1 765.7C387.885 765.411 389.716 765.728 391.3 766.6M342.4 765.8C344.895 765.53 347.42 765.803 349.8 766.6" stroke="black" stroke-width="3.204" stroke-miterlimit="10" stroke-linecap="round"/>
<path d="M355.8 750.9C344.5 750.6 338.4 750.7 328.3 752M396.3 752.4C389.5 750.8 385.3 750.6 377.7 750.6" stroke="black" stroke-width="6.866" stroke-miterlimit="10" stroke-linecap="round"/>
<path d="M494.2 808.3C472.1 812 416.9 816.2 348.6 811.7" stroke="black" stroke-width="2.289" stroke-miterlimit="10" stroke-linecap="round"/>
<path d="M387 859.7C380.8 868.2 372.1 876.1 355.9 879.4C331.7 884.2 319.1 861.4 317.3 842.5C316.6 834.4 316.3 825.8 319.9 834.8C326.9 851.8 342.7 854.3 354.5 854C366.3 853.7 371.6 854.9 387 859.7Z" fill="#039C78"/>
<path d="M259.1 873.9C266.3 877.6 275.2 877.9 275.2 877.9M255.2 801.8C251.037 807.692 248.298 814.47 247.2 821.6" stroke="black" stroke-width="2.289" stroke-miterlimit="10" stroke-linecap="round"/>
<path d="M342.348 838.752C344.523 836.476 343.017 831.507 338.984 827.653C334.951 823.799 329.919 822.52 327.744 824.796C325.569 827.072 327.075 832.041 331.108 835.895C335.141 839.749 340.173 841.028 342.348 838.752Z" fill="#03AB83"/>
<path d="M363.4 738.7C370.2 731.2 373.5 720.4 374.6 713M351.2 728.6C357 705 357 679.9 341 671.1" stroke="#D6B100" stroke-width="2.289" stroke-miterlimit="10" stroke-linecap="round"/>
<path d="M261.479 837.638C263.768 837.268 265.138 833.962 264.537 830.254C263.937 826.547 261.594 823.843 259.304 824.213C257.014 824.584 255.645 827.89 256.245 831.597C256.846 835.305 259.189 838.009 261.479 837.638Z" fill="#57F287"/>
<path d="M337.2 811.7L342.3 804.9" stroke="black" stroke-width="2.289" stroke-miterlimit="10" stroke-linecap="round"/>
<path d="M433.454 746.292C434.401 745.84 434.61 744.302 433.92 742.856C433.231 741.411 431.904 740.605 430.957 741.057C430.01 741.509 429.801 743.047 430.491 744.492C431.18 745.938 432.507 746.744 433.454 746.292Z" fill="black"/>
<path d="M454.6 731.2C454.494 731.2 454.392 731.158 454.317 731.083C454.242 731.008 454.2 730.906 454.2 730.8C454.512 728.157 455.436 725.623 456.9 723.4C459.4 719.6 461.3 718.3 463 717.9C464.7 717.5 466.1 717.9 466.1 719.4C465.767 722.322 465.026 725.183 463.9 727.9C465.772 727.498 467.687 727.33 469.6 727.4C470.7 727.5 470.7 728 469.9 728.4C469.1 728.8 464.9 730.4 454.6 731.2Z" fill="black"/>
<path d="M446.1 791.4C447.2 801.1 439.1 813.1 439.1 813.1" stroke="black" stroke-width="2.289" stroke-miterlimit="10" stroke-linecap="round"/>
<path d="M292.9 889.8L292.1 889.2L292.9 888.7C293.8 888.1 294.7 887.4 294.6 886.5C294.5 885.6 293.6 885 292.7 884.6L291.8 884.1C292.021 883.846 292.294 883.642 292.6 883.5C293.4 882.8 294.2 882.1 294.1 881.2C294 880.3 293 879.8 292 879.4L291.2 879L291.8 878.3C292.6 877.6 293.4 876.9 293.2 875.9C293 874.9 292 874.6 291.1 874.2C290.783 874.161 290.477 874.059 290.2 873.9L290.8 873.2C291.6 872.5 292.3 871.7 292.1 870.8C291.9 869.9 290.9 869.5 289.9 869.2C289.615 869.107 289.345 868.973 289.1 868.8L289.7 868.1C290.4 867.4 291.2 866.6 291 865.7C290.8 864.8 289.7 864.5 288.8 864.1L287.9 863.8L288.5 863.1C289.3 862.4 290 861.6 289.8 860.7C289.6 859.8 288.6 859.4 287.6 859.1L286.8 858.7C287 858.5 287.2 858.2 287.4 858.1C287.804 857.836 288.141 857.482 288.384 857.066C288.627 856.649 288.769 856.181 288.8 855.7C288.6 854.8 287.6 854.4 286.7 854L285.9 853.6L286.6 853C287.3 852.4 288.2 851.7 288.1 850.8C288 849.9 287 849.4 286.1 848.9L285.4 848.4L286.1 847.9C286.9 847.4 287.8 846.8 287.8 845.9C287.8 845 287 844.4 286.2 843.8L285.5 843.2L286.3 842.9L287.4 842.3C287.627 842.197 287.816 842.027 287.941 841.812C288.067 841.597 288.122 841.348 288.1 841.1C288.088 840.846 288.007 840.6 287.866 840.389C287.725 840.178 287.53 840.009 287.3 839.9C285.8 839.2 285.8 837.6 286.1 831.3V831C286.5 824 284.9 805.7 282.7 800.6C282.656 800.487 282.59 800.383 282.505 800.296C282.42 800.209 282.319 800.141 282.207 800.094C282.095 800.047 281.974 800.024 281.853 800.025C281.731 800.026 281.611 800.051 281.5 800.1C281.287 800.208 281.12 800.388 281.028 800.608C280.937 800.828 280.927 801.073 281 801.3C282.9 805.7 284.7 823.5 284.3 830.9V831.2C284 837.2 283.9 839.7 285.7 841.1H285.6C284.6 841.5 283.6 841.9 283.5 842.9C283.4 843.9 284.2 844.5 285.1 845.1L285.9 845.7L285.1 846.3C284.2 846.9 283.3 847.5 283.3 848.4C283.3 849.3 284.3 849.9 285.3 850.4L286.1 850.9L285.4 851.5C284.6 852.2 283.7 852.9 283.9 853.8C284.1 854.7 285 855.2 286 855.6C286.285 855.693 286.555 855.827 286.8 856C286.654 856.247 286.447 856.454 286.2 856.6C285.4 857.4 284.6 858.1 284.8 859C285 859.9 286 860.3 287 860.7L287.9 861C287.692 861.258 287.458 861.493 287.2 861.7C286.5 862.5 285.7 863.2 286 864.1C286.3 865 287.2 865.4 288.1 865.7L289 866.1L288.4 866.8C287.7 867.5 286.9 868.3 287.1 869.2C287.3 870.1 288.3 870.4 289.3 870.8L290.2 871.1L289.5 871.8C288.8 872.5 288.1 873.3 288.3 874.2C288.5 875.1 289.4 875.5 290.4 875.9L291.2 876.2L290.6 876.9C289.8 877.6 289.1 878.3 289.2 879.2C289.3 880.1 290.3 880.5 291.3 880.9L292.1 881.3L291.4 881.9C290.6 882.6 289.8 883.3 289.9 884.2C290 885.1 290.9 885.6 291.8 886.1L292.6 886.5L291.9 887C291 887.6 290.1 888.2 290.2 889.1C290.3 890 291 890.6 291.9 891.2L292.6 891.7L291.8 892.2C290.9 892.6 290 893.1 289.9 894C289.8 894.9 290.6 895.6 291.4 896.3L292 896.9L291.2 897.2C290.3 897.6 289.3 897.9 289 898.8C288.7 899.7 289.5 900.5 290.1 901.2L290.7 901.9L289.9 902.1C288.9 902.3 287.8 902.5 287.5 903.3C287.368 903.756 287.364 904.239 287.487 904.698C287.611 905.156 287.857 905.572 288.2 905.9L288.6 906.7H287.8C286.7 906.8 285.7 906.8 285.2 907.6C284.7 908.4 285.1 909.3 285.5 910.2L285.8 911.1H284.9C283.9 911 282.9 910.9 282.3 911.5C281.7 912.1 281.9 913.2 282.2 914.2C282.229 914.507 282.296 914.809 282.4 915.1L281.5 914.9C280.5 914.7 279.5 914.4 278.8 915C278.1 915.6 278.3 916.6 278.4 917.6C278.5 918.6 278.5 918.3 278.5 918.6L277.7 918.3C276.7 917.9 275.7 917.5 274.9 918.1C274.679 918.289 274.508 918.53 274.4 918.8H280.3C280.316 918.364 280.283 917.928 280.2 917.5C280.2 917.2 280.1 916.8 280.1 916.6L281.1 916.8C282.1 917 283.1 917.3 283.8 916.6C284.5 915.9 284.2 914.9 283.9 913.8C283.871 913.493 283.804 913.19 283.7 912.9H284.7C285.8 913 286.8 913.2 287.4 912.4C288 911.6 287.6 910.6 287.2 909.6L286.8 908.7H287.8C288.9 908.6 289.9 908.6 290.4 907.8C290.9 907 290.3 906 289.7 905.1L289.3 904.2L290.2 904C291.2 903.8 292.3 903.6 292.6 902.7C292.9 901.8 292.2 900.9 291.5 900.1L290.9 899.4L291.8 899C292.8 898.7 293.8 898.3 294 897.4C294.2 896.5 293.4 895.7 292.6 895L291.9 894.4L292.7 893.9C293.6 893.4 294.6 892.9 294.6 891.9C294.6 890.9 293.8 890.4 292.9 889.8Z" fill="white"/>
<path d="M489.1 757.1L493.7 758.7" stroke="black" stroke-width="2.289" stroke-miterlimit="10" stroke-linecap="round"/>
<path d="M207.2 874.9C202.8 872.8 197.2 873.9 189 878.8C192.019 882.303 195.223 885.641 198.6 888.8C197.3 898.3 194.2 903.6 191.2 910C188.2 916.4 191.3 920.8 196.6 921.6C201.9 922.4 204.7 920.5 208.7 914.3C211.325 910.115 212.998 905.404 213.6 900.5C214.035 897.587 214.236 894.645 214.2 891.7C214.2 882.6 211.9 877.2 207.2 874.9Z" fill="#2AD17D"/>
<path d="M213.1 887.4C219.6 886.6 224 886 227 890.1C230 894.2 230 898.8 228.3 907.2C226.6 915.6 222.5 924.2 216.1 923.6C209.7 923 207.3 919.3 209.6 910C211.224 902.545 212.392 894.997 213.1 887.4Z" fill="#2AD17D"/>
<path d="M227 897.1C231.8 897 237.6 896.7 239.2 901.9C240.8 907.1 239.4 913.9 236.2 919.3C233 924.7 228.7 925.9 225.5 924C222.3 922.1 222.2 920.5 224.7 913.5C227.2 906.5 227.9 903.6 227 897.1Z" fill="#2AD17D"/>
<path d="M257.8 909.9C253.2 909.6 244.5 909.5 238.4 909.2L236.8 912.1C245.663 915.339 254.905 917.422 264.3 918.3C266.8 913.5 263.9 910.3 257.8 909.9Z" fill="#2AD17D"/>
<path d="M209.2 913.4C213.337 905.36 215.073 896.3 214.2 887.3M229.4 897.8C229.3 906.5 227.8 913.5 223.6 919.3" stroke="black" stroke-width="2.289" stroke-miterlimit="10" stroke-linecap="round"/>
<path d="M316.9 806.9C318.6 800.9 324.5 794.7 327.2 792.9" stroke="#039C78" stroke-width="2.289" stroke-miterlimit="10" stroke-linecap="round"/>
<path d="M323.2 772L318.7 769.4" stroke="#039C78" stroke-width="2.289" stroke-miterlimit="10" stroke-linecap="round"/>
<path d="M244.6 690.9C241.006 688.586 237.944 685.535 235.617 681.949C233.29 678.364 231.75 674.325 231.1 670.1L228.9 655.5C228.852 655.164 228.683 654.858 228.426 654.637C228.168 654.416 227.839 654.296 227.5 654.3C227.144 654.271 226.791 654.379 226.512 654.602C226.233 654.825 226.05 655.146 226 655.5L223.8 670.1C223.193 674.326 221.682 678.372 219.369 681.962C217.057 685.551 213.997 688.6 210.4 690.9L208.5 692.1C208.293 692.25 208.123 692.445 208.002 692.67C207.88 692.895 207.811 693.145 207.8 693.4C207.811 693.642 207.881 693.877 208.003 694.086C208.125 694.295 208.295 694.471 208.5 694.6L210.4 695.8C213.997 698.1 217.057 701.149 219.369 704.738C221.682 708.328 223.193 712.373 223.8 716.6L226 731.2C226.05 731.554 226.233 731.875 226.512 732.098C226.791 732.321 227.144 732.429 227.5 732.4C227.839 732.403 228.168 732.284 228.426 732.063C228.683 731.842 228.852 731.536 228.9 731.2L231.1 716.6C231.75 712.375 233.29 708.336 235.617 704.75C237.944 701.165 241.006 698.114 244.6 695.8L246.4 694.6C246.618 694.487 246.8 694.314 246.924 694.101C247.048 693.889 247.109 693.646 247.1 693.4C247.105 693.141 247.044 692.886 246.921 692.658C246.798 692.43 246.619 692.238 246.4 692.1L244.6 690.9Z" fill="#91FFAD"/>
<path d="M1380.2 297.5C1377.22 295.598 1374.69 293.077 1372.78 290.109C1370.86 287.141 1369.61 283.796 1369.1 280.3L1367.3 268.3C1367.26 268.007 1367.11 267.739 1366.89 267.539C1366.68 267.339 1366.4 267.219 1366.1 267.2C1365.8 267.219 1365.52 267.339 1365.31 267.539C1365.09 267.739 1364.94 268.007 1364.9 268.3L1363.1 280.3C1362.57 283.788 1361.3 287.124 1359.39 290.088C1357.48 293.053 1354.96 295.579 1352 297.5L1350.4 298.5C1350.23 298.608 1350.09 298.755 1349.98 298.929C1349.88 299.103 1349.82 299.298 1349.8 299.5C1349.82 299.702 1349.88 299.897 1349.98 300.071C1350.09 300.245 1350.23 300.392 1350.4 300.5L1352 301.5C1354.96 303.442 1357.48 305.986 1359.39 308.967C1361.31 311.948 1362.57 315.298 1363.1 318.8L1364.9 330.8C1364.95 331.082 1365.09 331.339 1365.32 331.522C1365.54 331.705 1365.81 331.804 1366.1 331.8C1366.39 331.804 1366.66 331.705 1366.89 331.522C1367.11 331.339 1367.25 331.082 1367.3 330.8L1369.1 318.8C1369.61 315.29 1370.86 311.93 1372.77 308.946C1374.69 305.962 1377.22 303.422 1380.2 301.5L1381.8 300.5C1381.96 300.386 1382.09 300.236 1382.17 300.062C1382.26 299.888 1382.3 299.695 1382.3 299.5C1382.3 299.305 1382.26 299.112 1382.17 298.938C1382.09 298.764 1381.96 298.614 1381.8 298.5L1380.2 297.5Z" fill="#CCAA05"/>
<path d="M1468.3 954.2C1463.01 950.8 1458.51 946.313 1455.1 941.036C1451.68 935.759 1449.44 929.815 1448.5 923.6L1445.3 902.2C1445.23 901.697 1444.97 901.237 1444.59 900.905C1444.2 900.574 1443.71 900.395 1443.2 900.4C1442.69 900.395 1442.2 900.574 1441.81 900.905C1441.43 901.237 1441.17 901.697 1441.1 902.2L1437.9 923.6C1436.97 929.815 1434.72 935.759 1431.3 941.036C1427.89 946.313 1423.39 950.8 1418.1 954.2L1415.3 956C1415.01 956.201 1414.78 956.471 1414.62 956.785C1414.46 957.1 1414.39 957.449 1414.4 957.8V958C1414.39 958.351 1414.46 958.7 1414.62 959.015C1414.78 959.329 1415.01 959.599 1415.3 959.8L1418.1 961.6C1423.39 964.99 1427.9 969.475 1431.32 974.753C1434.73 980.032 1436.98 985.981 1437.9 992.2L1441.1 1013.5C1441.15 1014.02 1441.39 1014.51 1441.78 1014.86C1442.17 1015.21 1442.68 1015.4 1443.2 1015.4C1443.72 1015.4 1444.23 1015.21 1444.62 1014.86C1445.01 1014.51 1445.25 1014.02 1445.3 1013.5L1448.5 992.2C1449.42 985.981 1451.67 980.032 1455.08 974.753C1458.5 969.475 1463.01 964.99 1468.3 961.6L1471.1 959.8C1471.4 959.604 1471.65 959.338 1471.82 959.024C1472 958.71 1472.09 958.359 1472.1 958V957.8C1472.09 957.441 1472 957.089 1471.82 956.776C1471.65 956.462 1471.4 956.196 1471.1 956L1468.3 954.2Z" fill="#796500"/>
<path d="M793.5 845.4C791.881 844.372 790.5 843.011 789.448 841.407C788.396 839.804 787.698 837.994 787.4 836.1L786.5 829.5C786.448 829.346 786.356 829.209 786.233 829.104C786.109 828.998 785.96 828.928 785.8 828.9C785.641 828.9 785.488 828.963 785.376 829.076C785.263 829.188 785.2 829.341 785.2 829.5L784.2 836.1C783.902 837.994 783.204 839.804 782.152 841.407C781.1 843.011 779.719 844.372 778.1 845.4L777.3 846C777.204 846.041 777.123 846.112 777.07 846.202C777.016 846.291 776.991 846.396 777 846.5C776.991 846.604 777.016 846.709 777.07 846.798C777.123 846.888 777.204 846.959 777.3 847L778.1 847.6C779.719 848.628 781.1 849.989 782.152 851.593C783.204 853.196 783.902 855.006 784.2 856.9L785.2 863.5C785.2 863.659 785.263 863.812 785.376 863.924C785.488 864.037 785.641 864.1 785.8 864.1C785.96 864.072 786.109 864.002 786.233 863.896C786.356 863.791 786.448 863.654 786.5 863.5L787.4 856.9C787.698 855.006 788.396 853.196 789.448 851.593C790.5 849.989 791.881 848.628 793.5 847.6L794.3 847C794.396 846.959 794.477 846.888 794.53 846.798C794.584 846.709 794.609 846.604 794.6 846.5C794.609 846.396 794.584 846.291 794.53 846.202C794.477 846.112 794.396 846.041 794.3 846L793.5 845.4Z" fill="#FF78B9"/>
<path d="M847.2 146.5C846.2 145.859 845.351 145.008 844.712 144.007C844.074 143.005 843.66 141.877 843.5 140.7L842.9 136.7C842.9 136.5 842.7 136.4 842.5 136.4C842.3 136.4 842.1 136.5 842.1 136.7L841.5 140.7C841.34 141.877 840.927 143.005 840.288 144.007C839.649 145.008 838.8 145.859 837.8 146.5L837.3 146.8L837.1 147.1C837.1 147.2 837.2 147.3 837.3 147.4L837.8 147.7C838.8 148.341 839.649 149.192 840.288 150.193C840.927 151.195 841.34 152.323 841.5 153.5L842.1 157.5C842.1 157.7 842.3 157.8 842.5 157.8C842.7 157.8 842.9 157.7 842.9 157.5L843.5 153.5C843.66 152.323 844.074 151.195 844.712 150.193C845.351 149.192 846.2 148.341 847.2 147.7L847.7 147.4C847.8 147.3 847.9 147.2 847.9 147.1L847.7 146.8L847.2 146.5Z" fill="#FF78B9"/>
<path d="M1431.5 630.1C1486.01 630.1 1530.2 585.911 1530.2 531.4C1530.2 476.89 1486.01 432.7 1431.5 432.7C1376.99 432.7 1332.8 476.89 1332.8 531.4C1332.8 585.911 1376.99 630.1 1431.5 630.1Z" fill="#AC910C"/>
<path d="M1431.5 630.1C1486.01 630.1 1530.2 585.911 1530.2 531.4C1530.2 476.89 1486.01 432.7 1431.5 432.7C1376.99 432.7 1332.8 476.89 1332.8 531.4C1332.8 585.911 1376.99 630.1 1431.5 630.1Z" fill="#AC910C"/>
<path d="M1431.5 630.1C1486.01 630.1 1530.2 585.911 1530.2 531.4C1530.2 476.89 1486.01 432.7 1431.5 432.7C1376.99 432.7 1332.8 476.89 1332.8 531.4C1332.8 585.911 1376.99 630.1 1431.5 630.1Z" fill="#AC910C"/>
<path d="M1431.5 639.5C1491.2 639.5 1539.6 591.102 1539.6 531.4C1539.6 471.698 1491.2 423.3 1431.5 423.3C1371.8 423.3 1323.4 471.698 1323.4 531.4C1323.4 591.102 1371.8 639.5 1431.5 639.5Z" stroke="#29CC7A" stroke-width="6.883" stroke-miterlimit="10"/>
<path d="M1358.8 562C1355.4 561.959 1352.02 562.591 1348.86 563.861C1345.7 565.131 1342.83 567.014 1340.4 569.4C1347.05 585.439 1357.86 599.418 1371.7 609.9C1376.5 607.009 1380.23 602.634 1382.32 597.436C1384.42 592.238 1384.76 586.499 1383.3 581.088C1381.85 575.676 1378.67 570.887 1374.25 567.443C1369.83 563.999 1364.4 562.089 1358.8 562Z" fill="#D6B100"/>
<path d="M1348.2 570.2C1348.5 571.9 1353.1 574.1 1359.7 575.1C1366.3 576.1 1371.5 575.3 1372.2 573.7C1374.63 568.579 1376.8 563.339 1378.7 558C1379.8 554.8 1377.6 549.9 1365.5 549C1353.4 548.1 1349.5 549.7 1347.6 552.3C1345.7 554.9 1346.4 561.5 1348.2 570.2Z" fill="#BF0F76"/>
<path d="M1386.9 507.9C1384.8 507.6 1382.3 508.6 1379.3 515.1C1379.6 506.9 1379.4 498.7 1379.4 494.8C1379.4 490.9 1377.6 489.7 1375.5 489.5C1374.91 489.431 1374.31 489.484 1373.75 489.656C1373.18 489.828 1372.65 490.116 1372.2 490.501C1371.75 490.886 1371.39 491.36 1371.13 491.893C1370.87 492.427 1370.72 493.008 1370.7 493.6C1370.4 496.7 1370.1 506.1 1370 509.2C1369.9 512.3 1369.8 512.9 1369.4 512.9C1369 512.9 1368.5 511.9 1367.9 509.7C1366.77 506.062 1365.43 502.49 1363.9 499C1361.9 494.2 1361.3 491.2 1354.8 492.6C1348.3 494 1343.1 499.7 1341.5 503.5C1339.9 507.3 1342 510.6 1346.8 522.4C1343.1 537.8 1343.5 540 1345.9 543.1C1348.3 546.2 1353.8 546 1362.9 545.4C1382.9 544.1 1382.8 542.8 1385 534.1C1387.2 525.4 1388.5 518 1389 515C1389.5 512 1389.7 508.3 1386.9 507.9Z" fill="#FFE75C"/>
<path d="M1375.9 522.7C1376.07 522.654 1376.22 522.565 1376.34 522.443C1376.47 522.32 1376.55 522.167 1376.6 522C1377.38 519.623 1378.28 517.286 1379.3 515C1379.3 513.6 1379.4 512.1 1379.4 510.7C1377.57 513.931 1376.09 517.351 1375 520.9C1366.1 522.3 1361.1 526.7 1359.3 534.9C1359.27 535.15 1359.34 535.403 1359.48 535.607C1359.63 535.811 1359.85 535.951 1360.1 536H1360.3C1360.5 535.989 1360.7 535.916 1360.86 535.791C1361.02 535.666 1361.14 535.494 1361.2 535.3C1362.8 527.7 1367.4 523.8 1375.9 522.7Z" fill="black"/>
<path d="M1356.6 544.2C1356.4 548.3 1356.5 554 1356.5 554L1371.9 555.1L1372.8 541.9L1356.6 544.2Z" fill="#FFE75C"/>
<path d="M1420.3 546.9C1397.8 551.2 1392.5 569.6 1394.3 590.7C1384.3 597.2 1380.6 604.7 1380.7 616C1397.87 626.323 1417.77 631.172 1437.76 629.904C1457.75 628.636 1476.88 621.309 1492.6 608.9L1496.6 552.8C1496.6 552.8 1442.9 542.7 1420.3 546.9Z" fill="#D6B100"/>
<path d="M1384.5 575.1C1371.9 579.3 1364.1 588.6 1362.1 601.6C1374.23 613.585 1389.25 622.231 1405.7 626.7L1418 546.1C1399.7 543.7 1383.5 553.4 1384.5 575.1Z" fill="#D6B100"/>
<path d="M1423.5 560.2C1413 539 1407.4 536.8 1408.5 530.3C1409.6 523.8 1424.1 523.4 1443.4 523.5C1462.7 523.6 1442.4 559 1442.4 559L1423.5 560.2Z" fill="black"/>
<path d="M1420.3 546.9C1397.8 551.2 1392.5 569.6 1394.3 590.7C1384.9 596.8 1381.1 603.9 1380.7 614.1" stroke="black" stroke-width="2.238" stroke-linecap="round" stroke-linejoin="round"/>
<path d="M1451.3 554C1428.3 564.2 1431.3 571.7 1438.1 591.5C1432.97 596.169 1429.15 602.088 1426.99 608.678C1424.83 615.268 1424.42 622.304 1425.8 629.1" stroke="white" stroke-width="2.238" stroke-linecap="round" stroke-linejoin="round"/>
<path d="M1477.8 428.5C1484.6 419.8 1493.6 414.9 1502.1 417.1C1510.6 419.3 1512.4 424.1 1517 450.3C1532.9 458.7 1534.8 460.9 1522.2 479.2C1533.8 490.7 1535.3 496.6 1520.3 509.6L1503.8 510.4C1489.7 498.7 1487.2 498.2 1494 481.3C1471.7 454.6 1474.5 449.7 1477.8 428.5Z" fill="url(#paint1_linear_5_2)"/>
<path d="M1499.3 482.7C1499.3 479.5 1500.9 477 1502.8 477C1504.7 477 1506.4 479.5 1506.4 482.7" stroke="white" stroke-width="2.238" stroke-linecap="round" stroke-linejoin="round"/>
<path d="M1494.8 460.4C1499.88 460.4 1504 456.281 1504 451.2C1504 446.119 1499.88 442 1494.8 442C1489.72 442 1485.6 446.119 1485.6 451.2C1485.6 456.281 1489.72 460.4 1494.8 460.4Z" fill="#957C00"/>
<path d="M1491.3 446.9C1496.38 446.9 1500.5 442.781 1500.5 437.7C1500.5 432.619 1496.38 428.5 1491.3 428.5C1486.22 428.5 1482.1 432.619 1482.1 437.7C1482.1 442.781 1486.22 446.9 1491.3 446.9Z" fill="#957C00"/>
<path d="M1479.5 442.8C1484.58 442.8 1488.7 438.681 1488.7 433.6C1488.7 428.519 1484.58 424.4 1479.5 424.4C1474.42 424.4 1470.3 428.519 1470.3 433.6C1470.3 438.681 1474.42 442.8 1479.5 442.8Z" fill="#957C00"/>
<path d="M1470.4 437.1C1473.49 437.1 1476 434.593 1476 431.5C1476 428.407 1473.49 425.9 1470.4 425.9C1467.31 425.9 1464.8 428.407 1464.8 431.5C1464.8 434.593 1467.31 437.1 1470.4 437.1Z" fill="#957C00"/>
<path d="M1439.2 565.3C1457.4 565.3 1471.8 555.8 1480.6 547.8C1486.49 542.329 1490.27 534.97 1491.3 527C1492.8 515.2 1495.2 495.1 1496.5 474.6C1498.5 442.7 1478.5 429.9 1459.6 431.6C1440.7 433.3 1425 443.3 1421.5 474.6C1399.6 474.6 1391.7 477.6 1390.2 485.7C1388.7 493.8 1398.4 499.1 1412.7 505.2C1416.1 506.6 1416.5 506.9 1417.1 508.9C1417.7 510.9 1419.9 521 1433.1 531.7C1429.7 539.8 1428.9 546.1 1429.8 555.3C1430.7 564.5 1435.6 565.3 1439.2 565.3Z" fill="url(#paint2_linear_5_2)"/>
<path d="M1438.1 559.3C1430.4 539.8 1426.6 536.6 1412.4 526.1C1410.1 527.1 1408.8 528.4 1408.5 530.3C1407.4 536.8 1413 539 1423.5 560.2L1438.1 559.3Z" fill="#BF0F76"/>
<path d="M1489.8 467.5C1507.8 466.2 1512.5 466.9 1513.4 471.3C1514.3 475.7 1509.1 479.2 1490.7 488.7L1489.8 467.5Z" fill="#FFE75C"/>
<path d="M1450.8 493.8C1449.8 496.6 1449.8 501.3 1449.9 506.5C1450 511.7 1450.5 518.4 1444.1 518.9C1437.7 519.4 1434.3 512 1432.6 508.8C1430.9 505.6 1430.5 505.2 1429.6 504.7C1428.7 504.2 1425 502.3 1421.7 500.6C1418.4 498.9 1416.4 497.2 1417.3 496.2C1418.2 495.2 1426.9 497 1436.3 497.9C1445.7 498.8 1447.2 495.8 1449.9 492.6C1450.4 492 1451.4 492 1450.8 493.8Z" fill="#C40655"/>
<path d="M1449.9 492.6C1447.9 495 1446.5 497.3 1442 497.9C1441.85 498.457 1441.75 499.026 1441.7 499.6C1441.3 504.6 1443.7 508.7 1447 508.7C1448.06 508.664 1449.08 508.277 1449.9 507.6V506.5C1449.8 501.3 1449.8 496.6 1450.8 493.8C1451.8 491 1450.4 492 1449.9 492.6Z" fill="black"/>
<path d="M1448.5 485.9C1451.01 488.622 1454.13 490.712 1457.6 492" stroke="#FFAE00" stroke-width="2.5" stroke-miterlimit="10" stroke-linecap="round"/>
<path d="M1434.8 512.9C1436.8 516 1439.8 519.3 1444.1 518.9C1450.5 518.4 1450 511.7 1449.9 506.5C1449.9 504.6 1449.8 502.8 1449.9 501.1C1443.2 499.9 1435.9 503.1 1434.8 512.9Z" fill="#957C00"/>
<path d="M1447.3 499.9C1444.2 501.7 1440.6 506.3 1440.3 513.1M1424.6 474.1C1425.5 467.9 1427.1 465.8 1428.2 465.6C1429.3 465.4 1429.2 467.9 1428.8 473.5M1454.6 473.5C1456.7 464.4 1459.7 463.9 1461 464.5C1462.3 465.1 1463.2 467.4 1462.9 474.1" stroke="black" stroke-width="2.238" stroke-linecap="round" stroke-linejoin="round"/>
<path d="M1473.55 482.484C1476.76 480.141 1477.87 476.179 1476.01 473.636C1474.16 471.092 1470.05 470.93 1466.83 473.272C1463.62 475.615 1462.52 479.577 1464.38 482.12C1466.23 484.664 1470.34 484.826 1473.55 482.484Z" fill="#FFEA83"/>
<path d="M1506.4 482.7C1506.4 485.8 1504.8 488.3 1502.8 488.3C1500.8 488.3 1499.3 485.8 1499.3 482.7" stroke="white" stroke-width="2.238" stroke-linecap="round" stroke-linejoin="round"/>
<path d="M1500.9 501.6L1498.2 496.6C1498.15 496.491 1498.12 496.371 1498.12 496.25C1498.12 496.129 1498.15 496.009 1498.2 495.9L1502 490.6C1502.06 490.496 1502.14 490.411 1502.24 490.355C1502.35 490.299 1502.47 490.275 1502.58 490.286C1502.7 490.297 1502.81 490.342 1502.9 490.415C1503 490.489 1503.06 490.588 1503.1 490.7L1505.4 495.5C1505.45 495.591 1505.48 495.695 1505.48 495.8C1505.48 495.905 1505.45 496.009 1505.4 496.1L1502 501.6C1501.93 501.683 1501.85 501.75 1501.76 501.797C1501.66 501.843 1501.56 501.867 1501.45 501.867C1501.34 501.867 1501.24 501.843 1501.14 501.797C1501.05 501.75 1500.97 501.683 1500.9 501.6Z" fill="white"/>
<path d="M1520.3 509.6L1503.8 510.4C1501.6 511.8 1502.4 512.7 1503.8 514L1520.2 513.4C1522.7 511.3 1522 510.9 1520.3 509.6Z" fill="#957C00"/>
<path d="M1520.2 513.4C1521.3 518 1521.8 521.1 1522.1 523C1522.4 524.9 1521.6 526 1512.1 526.3C1502.6 526.6 1503 525.1 1503.1 522.8C1503.2 520.5 1503.8 514 1503.8 514L1520.2 513.4Z" fill="#FFE75C"/>
<path d="M1492.2 545.1C1497 527.6 1498.6 521.9 1488.8 522.4C1476.37 523.042 1463.98 524.377 1451.7 526.4C1442.7 528 1442.9 529.2 1447.3 559L1492.2 545.1Z" fill="#BF0F76"/>
<path d="M1393.6 541.2C1393.31 541.211 1393.02 541.284 1392.75 541.414C1392.49 541.544 1392.25 541.728 1392.06 541.954C1391.88 542.181 1391.74 542.444 1391.66 542.728C1391.58 543.011 1391.56 543.308 1391.6 543.6L1397 582.8C1397.18 583.976 1397.78 585.045 1398.7 585.8C1400.2 586.9 1403 588.2 1408 588.2C1413 588.2 1415.8 586.9 1417.2 585.8C1418.12 585.045 1418.72 583.976 1418.9 582.8L1424.4 543.6C1424.44 543.3 1424.42 542.994 1424.34 542.704C1424.25 542.413 1424.1 542.145 1423.9 541.917C1423.7 541.689 1423.46 541.507 1423.18 541.383C1422.9 541.259 1422.6 541.197 1422.3 541.2H1393.6Z" fill="white"/>
<path d="M1417.1 548.5C1423 548.1 1425.7 548 1427.1 550.2C1428.5 552.4 1427.5 556.3 1426.3 562.9C1425.1 569.5 1423.6 568.4 1416.1 568.9" stroke="white" stroke-width="5" stroke-linecap="round" stroke-linejoin="round"/>
<path d="M1465.38 453.922C1465.48 453.157 1463.89 452.299 1461.81 452.007C1459.73 451.715 1457.96 452.099 1457.85 452.865C1457.74 453.63 1459.34 454.488 1461.42 454.78C1463.5 455.072 1465.27 454.688 1465.38 453.922Z" fill="black"/>
<path d="M1430.71 456.875C1430.8 456.219 1429.72 455.525 1428.3 455.325C1426.88 455.125 1425.65 455.495 1425.56 456.152C1425.47 456.808 1426.54 457.502 1427.97 457.702C1429.39 457.902 1430.62 457.532 1430.71 456.875Z" fill="black"/>
<path d="M1483.4 656C1498.48 656 1510.7 643.777 1510.7 628.7C1510.7 613.623 1498.48 601.4 1483.4 601.4C1468.32 601.4 1456.1 613.623 1456.1 628.7C1456.1 643.777 1468.32 656 1483.4 656Z" fill="#D6B100"/>
<path d="M1436.3 559C1465.6 547.7 1484.5 540.5 1497.8 538.4C1504.06 537.35 1510.49 538.149 1516.3 540.7C1536 549.5 1531 570.3 1524.5 580.3C1536.9 588.9 1543.1 604.7 1530.3 622.8C1541.3 632.2 1547.9 652.7 1533.6 665.2C1519.3 677.7 1497.8 673.8 1489 654.9L1436.3 559Z" fill="#D6B100"/>
<path d="M1459.9 620.2C1461.5 621.2 1466.5 619.4 1472.2 615.1C1477.9 610.8 1481 606.4 1480.4 604.6C1478.2 598.5 1474.9 591.3 1473.3 588C1471.7 584.7 1466.4 582.9 1456.7 591.3C1447 599.7 1445.4 604 1445.9 607.4C1446.4 610.8 1452 615.1 1459.9 620.2Z" fill="#BF0F76"/>
<path d="M1453.5 585.1C1462.8 574.7 1466.4 567.5 1467 564.2C1467.6 560.9 1467.8 558.1 1460.1 551.1C1452.4 544.1 1448.1 542 1444.3 542.3C1440.5 542.6 1437 546.9 1433.7 555.7C1433.2 557.2 1438.7 560.6 1437.1 561C1428 563.8 1425.4 576 1424 581.2C1422.6 586.4 1422.4 590.9 1429.3 595C1436.2 599.1 1439 601.4 1453.5 585.1Z" fill="#FFE75C"/>
<path d="M1441.2 550.8C1429.1 551.2 1423.5 552.1 1420.9 553.4C1418.3 554.7 1418.4 557.4 1418.8 560C1419.2 562.6 1419.7 563.5 1426.2 563.7C1432.7 563.9 1441.2 563.7 1441.2 563.7V550.8Z" fill="#FFE75C"/>
<path d="M1445.1 592.7L1452.1 601.1L1464.3 591.3L1455.8 579L1445.1 592.7Z" fill="#FFE75C"/>
<path d="M1349.5 494.9C1348.75 495.285 1348.04 495.754 1347.4 496.3C1347.12 496.497 1346.91 496.778 1346.8 497.101C1346.7 497.425 1346.69 497.775 1346.8 498.1C1347.5 501.7 1350.1 507.7 1355.5 518.1C1355.59 518.269 1355.71 518.413 1355.87 518.518C1356.03 518.623 1356.21 518.686 1356.4 518.7L1356.8 518.5C1356.92 518.46 1357.02 518.393 1357.11 518.306C1357.19 518.219 1357.26 518.114 1357.29 517.998C1357.33 517.882 1357.34 517.759 1357.33 517.638C1357.31 517.517 1357.27 517.401 1357.2 517.3C1347.8 499.1 1347.7 496.1 1349.5 494.9Z" fill="black"/>
<path d="M1443.3 551.5C1438.2 554.1 1437.8 558.8 1438.7 562.8C1433.7 565.1 1432.4 567.9 1433.3 574.1C1430.6 575.7 1428.3 577.7 1429.2 582.7" stroke="black" stroke-width="2.238" stroke-linecap="round" stroke-linejoin="round"/>
<path d="M1445.6 593.2L1449.9 589.2L1448.4 596.6L1445.6 593.2Z" fill="black"/>
<path d="M1356.5 545.8L1369.2 545L1356.5 551.8V545.8Z" fill="black"/>
<path d="M1347.2 564.8L1374.7 568.2L1374.6 577.3L1345.9 575.5L1347.2 564.8Z" fill="#D6B100"/>
<path d="M1509.5 620.5C1507.75 614.951 1504.28 610.105 1499.58 606.669C1494.89 603.233 1489.22 601.387 1483.4 601.4M1493.4 580.9C1488.97 586.609 1486.96 593.825 1487.8 601" stroke="black" stroke-width="2.238" stroke-linecap="round" stroke-linejoin="round"/>
<path d="M1489.8 587.1L1487.2 582.7" stroke="black" stroke-width="2.238" stroke-linecap="round" stroke-linejoin="round"/>
<path d="M1263.3 840.4C1258.72 839.41 1253.99 839.376 1249.4 840.3C1248.6 834.6 1244 829.1 1232.5 818.6C1217.7 805.1 1213.9 788.2 1213.9 771.1L1172.9 804.4L1163.1 845.6C1177.8 842.1 1192.7 839.9 1208.2 846.2L1213.4 848.6C1214.15 848.995 1214.79 849.571 1215.26 850.275C1215.73 850.979 1216.02 851.79 1216.1 852.634C1216.18 853.477 1216.05 854.327 1215.72 855.107C1215.38 855.887 1214.86 856.572 1214.2 857.1C1209.7 860.6 1206.6 863.8 1206.3 864C1202.55 867.638 1199.07 871.549 1195.9 875.7C1178.7 899.2 1183.7 918 1205.5 916.8C1224.6 915.8 1250 899.9 1264.4 881.2C1278.8 862.5 1279.9 844.4 1263.3 840.4ZM1258.6 874.1C1245.1 891.5 1220.4 906.8 1209.9 906.8C1199.4 906.8 1202.3 893.3 1216.5 876.6C1230.7 859.9 1250.6 846.2 1261.1 846.2C1271.6 846.2 1270.9 858.2 1258.6 874.1Z" fill="#FFC619"/>
<path d="M1213.8 771.2C1214.1 778.9 1212.3 788.2 1208.6 797.7C1199.7 820.6 1181.9 839.8 1166.1 844.9L1173.1 843.5C1187.4 835.8 1202.2 818.4 1210 798.2C1212.09 793.085 1213.6 787.752 1214.5 782.3C1214.1 778.58 1213.9 774.841 1213.9 771.1L1213.8 771.2Z" fill="#FF8C19"/>
<path d="M1201.44 811.811C1216.78 785.977 1218.12 758.452 1204.45 750.331C1190.77 742.211 1167.25 756.57 1151.91 782.404C1136.57 808.237 1135.22 835.763 1148.9 843.883C1162.58 852.004 1186.1 837.645 1201.44 811.811Z" fill="#FFC619"/>
<path d="M1195 753.5C1179.8 753.5 1158.4 774.7 1148.4 799.8C1138.4 824.9 1143.9 840.9 1159 838.8C1174.1 836.7 1192.1 817.9 1201.9 795.8C1211.7 773.7 1209.4 753.5 1195 753.5Z" fill="#FF8C19"/>
<path d="M1195 753.5C1179.8 753.5 1158.4 774.7 1148.4 799.8C1138.4 824.9 1143.9 840.9 1159 838.8C1174.1 836.7 1192.1 817.9 1201.9 795.8C1211.7 773.7 1209.4 753.5 1195 753.5Z" fill="#FF8C19"/>
<path d="M1201.9 795.8C1203.76 791.485 1205.29 787.04 1206.5 782.5C1205.74 781.773 1204.85 781.204 1203.87 780.827C1202.89 780.449 1201.85 780.27 1200.8 780.3C1190.6 780.3 1176.2 794.6 1169.4 811.5C1165.1 822.4 1165.2 831.1 1168.7 835.3C1181 828.5 1194.2 813.1 1201.9 795.8Z" fill="black"/>
<path d="M1200.6 798.5C1197.64 804.598 1194.09 810.393 1190 815.8C1183.2 818.3 1181.6 824.7 1178 831.9C1173.5 840.9 1165.8 849.5 1152.2 855.3C1128.8 865.3 1110.7 854.8 1105.1 849.2C1099.5 843.6 1102.2 836.7 1112.2 835.8C1122.2 834.9 1134.8 834.6 1143.5 821.7C1144.81 819.737 1145.95 817.663 1146.9 815.5C1154.9 796.4 1167.6 796.2 1174.7 800.6C1184 794.7 1193.2 794.6 1200.6 798.5Z" fill="url(#paint3_linear_5_2)"/>
<path d="M1174.7 800.6C1163.8 808 1161.8 821.7 1154.2 830.7C1146.6 839.7 1139.5 841 1139.5 841" stroke="black" stroke-width="1.703" stroke-miterlimit="10" stroke-linecap="round"/>
<path d="M1205 758.7L1203.5 761.7C1201.6 765.2 1198.9 765.4 1193.9 765.4C1188.9 765.4 1189.6 762.6 1195.6 753.5C1197.47 753.536 1199.31 754.029 1200.94 754.935C1202.58 755.841 1203.97 757.134 1205 758.7ZM1194.6 753.5C1189.2 762.3 1187.5 765.4 1183.1 765.4C1178.7 765.4 1174.6 765.6 1178.8 760.2C1179.16 759.786 1179.49 759.352 1179.8 758.9C1185 755.6 1190 753.6 1194.6 753.5Z" fill="white"/>
<path d="M1248.6 850.1C1250.2 847.4 1250.4 844.6 1250.4 841.5C1250.4 841.386 1250.38 841.273 1250.33 841.169C1250.28 841.065 1250.22 840.972 1250.13 840.896C1250.05 840.82 1249.95 840.763 1249.84 840.73C1249.73 840.696 1249.61 840.686 1249.5 840.7C1249.29 840.7 1249.08 840.784 1248.93 840.934C1248.78 841.084 1248.7 841.288 1248.7 841.5C1248.7 845.7 1248.3 849.1 1244.1 852.6C1245.56 851.691 1247.06 850.856 1248.6 850.1Z" fill="black"/>
<path d="M1230.6 871.1L1238.2 891.2" stroke="#FFC619" stroke-width="5.643" stroke-miterlimit="10" stroke-linecap="round"/>
<path d="M1238.9 863.9L1246.5 884" stroke="#FFC619" stroke-width="5.643" stroke-miterlimit="10" stroke-linecap="round"/>
<path d="M1247.2 856.7L1254.8 876.7" stroke="#FFC619" stroke-width="5.643" stroke-miterlimit="10" stroke-linecap="round"/>
<path d="M1264.9 859.2C1262.9 854.1 1257.1 853.5 1252 858L1231.4 875.9C1226.2 880.4 1223.6 888.3 1225.5 893.4C1227.4 898.5 1233.3 899 1238.4 894.5L1259.1 876.6C1264.2 872.1 1266.8 864.3 1264.9 859.2Z" stroke="#FF8C19" stroke-width="3.762" stroke-miterlimit="10" stroke-linecap="round"/>
<path d="M1258.4 875.1C1260.49 873.192 1262.46 871.155 1264.3 869C1266.03 867.001 1267.29 864.645 1268 862.1C1269.2 857.1 1267.4 851.6 1265.4 846.3C1264.4 843.7 1263.3 841 1262.2 838.4L1260.5 834.4C1259.9 833 1259.3 831.6 1258.8 830.2C1257.72 827.341 1256.89 824.398 1256.3 821.4C1255.62 818.374 1255.18 815.297 1255 812.2C1254.94 811.208 1255.28 810.234 1255.93 809.486C1256.59 808.739 1257.51 808.277 1258.5 808.2C1259.49 808.145 1260.47 808.48 1261.21 809.134C1261.96 809.789 1262.42 810.71 1262.5 811.7C1262.6 811.9 1262.5 812.2 1262.5 812.3C1262.03 817.785 1262.58 823.31 1264.1 828.6C1264.44 829.928 1264.88 831.232 1265.4 832.5L1266.8 836.6C1267.8 839.4 1268.8 842.1 1269.7 844.9C1270.63 847.78 1271.37 850.72 1271.9 853.7C1272.59 856.818 1272.49 860.058 1271.62 863.13C1270.75 866.202 1269.12 869.009 1266.9 871.3C1264.89 873.524 1262.76 875.628 1260.5 877.6C1260.34 877.742 1260.15 877.85 1259.94 877.917C1259.74 877.984 1259.52 878.009 1259.31 877.99C1259.09 877.972 1258.88 877.91 1258.69 877.808C1258.5 877.707 1258.34 877.568 1258.2 877.4C1257.94 877.078 1257.82 876.67 1257.86 876.26C1257.9 875.85 1258.09 875.471 1258.4 875.2V875.1Z" fill="#FF8C19"/>
<path d="M1263.43 806.828C1264.65 808.047 1265.33 809.7 1265.33 811.424C1265.33 813.148 1264.65 814.801 1263.43 816.02L1262.15 817.293C1261.27 818.174 1260.08 818.669 1258.83 818.669C1257.59 818.669 1256.39 818.174 1255.51 817.293L1254.24 816.02C1253.02 814.801 1252.33 813.148 1252.33 811.424C1252.33 809.7 1253.02 808.047 1254.24 806.828C1255.45 805.609 1257.11 804.924 1258.83 804.924C1260.56 804.924 1262.21 805.609 1263.43 806.828Z" fill="white"/>
<path d="M1261.5 813.472C1263.01 811.957 1263.01 809.494 1261.48 807.971C1259.96 806.448 1257.5 806.442 1255.98 807.957C1254.47 809.472 1254.47 811.935 1256 813.458C1257.52 814.981 1259.98 814.988 1261.5 813.472Z" stroke="black" stroke-width="1.703" stroke-miterlimit="10" stroke-linecap="round"/>
<path d="M1147 766.4L1132.9 758.5C1131.96 757.97 1131.18 757.2 1130.63 756.268C1130.09 755.337 1129.8 754.279 1129.8 753.2V752.2C1129.79 751.391 1129.93 750.587 1130.24 749.835C1130.54 749.083 1130.98 748.399 1131.55 747.822C1132.12 747.245 1132.8 746.786 1133.54 746.474C1134.29 746.161 1135.09 746 1135.9 746C1137.22 745.985 1138.5 746.395 1139.56 747.17C1140.63 747.945 1141.41 749.043 1141.8 750.3L1147 766.4Z" fill="#4AB0FF"/>
<path d="M1128.9 804.3L1119.8 811C1119.19 811.447 1118.47 811.728 1117.72 811.815C1116.96 811.903 1116.2 811.794 1115.5 811.5L1114.9 811.2C1113.85 810.738 1113.02 809.883 1112.59 808.818C1112.16 807.753 1112.16 806.562 1112.6 805.5C1112.99 804.681 1113.62 804.002 1114.4 803.554C1115.19 803.107 1116.1 802.913 1117 803L1128.9 804.3Z" fill="#66BCFF"/>
<path d="M541.2 82.7C537.855 82.6841 534.557 83.4868 531.594 85.0381C528.631 86.5895 526.093 88.8422 524.2 91.6C518.666 89.1084 512.669 87.8134 506.6 87.8C496.365 87.7701 486.461 91.4264 478.7 98.1H561.2C560.016 93.6954 557.417 89.802 553.803 87.0194C550.189 84.2367 545.761 82.719 541.2 82.7Z" fill="#B79909"/>
<path d="M1523.2 121.3C1523.1 121.5 1522.9 121.6 1522.8 121.5C1519.7 119.3 1518.3 119.7 1517.5 120.8C1516.7 121.9 1516.7 123.7 1517 126.3C1517.04 126.55 1516.99 126.806 1516.86 127.025C1516.74 127.243 1516.54 127.411 1516.3 127.5C1516.1 127.6 1515.8 127.6 1515.7 127.4C1513.6 125.3 1512.5 124.3 1511 124C1509.5 123.7 1506.7 124.5 1504.9 127.5L1498.9 121C1502.69 118.141 1505.35 114.031 1506.4 109.4C1507.2 105.7 1508.3 106 1512.4 109.3C1516.54 112.628 1520.18 116.535 1523.2 120.9C1523.25 120.955 1523.28 121.026 1523.28 121.1C1523.28 121.174 1523.25 121.245 1523.2 121.3ZM1469.7 131.6C1469.8 131.63 1469.91 131.636 1470.01 131.619C1470.12 131.601 1470.21 131.561 1470.3 131.5C1472.3 128.9 1473.8 128.7 1474.9 129.2C1476 129.7 1476.6 131.1 1477.1 132.9C1477.16 133.084 1477.29 133.242 1477.45 133.35C1477.61 133.459 1477.81 133.511 1478 133.5C1478.2 133.4 1478.5 133.3 1478.6 133C1479.5 131.1 1480.1 130.2 1481.2 129.5C1482 129.068 1482.92 128.885 1483.83 128.974C1484.73 129.063 1485.6 129.42 1486.3 130L1489 124.4C1485.57 123.073 1482.73 120.552 1481 117.3C1479.1 114.1 1478.3 114.6 1475.6 118.5C1472.84 122.291 1470.8 126.564 1469.6 131.1C1469.56 131.182 1469.54 131.277 1469.56 131.368C1469.58 131.459 1469.63 131.541 1469.7 131.6Z" fill="#CCAA01"/>
<path d="M1495 143.9C1501.85 143.9 1507.4 138.348 1507.4 131.5C1507.4 124.652 1501.85 119.1 1495 119.1C1488.15 119.1 1482.6 124.652 1482.6 131.5C1482.6 138.348 1488.15 143.9 1495 143.9Z" fill="#CCAA01"/>
<path d="M1530.7 74.3C1530.6 74.5001 1530.44 74.6647 1530.24 74.7719C1530.05 74.8792 1529.82 74.9238 1529.6 74.9C1520.4 72.3 1517.2 73.9 1515.9 76.6C1514.6 79.3 1516.1 82.5 1518.5 86.9C1518.71 87.3249 1518.74 87.815 1518.59 88.2643C1518.44 88.7135 1518.12 89.0856 1517.7 89.3C1517.46 89.451 1517.18 89.5312 1516.9 89.5312C1516.62 89.5312 1516.34 89.451 1516.1 89.3C1510.4 86.7 1507.4 85.5 1503.9 85.6C1501.71 85.638 1499.61 86.4378 1497.95 87.8616C1496.28 89.2854 1495.17 91.2441 1494.8 93.4L1479 85.7C1484 77.3 1483.6 68.7 1481.5 60.5C1479.4 52.3 1481.8 51.5 1494.5 55.7C1507.23 59.7805 1519.29 65.7106 1530.3 73.3C1530.46 73.4112 1530.58 73.5644 1530.65 73.7416C1530.72 73.9188 1530.74 74.1125 1530.7 74.3Z" fill="#E8C30E"/>
<path d="M1491.3 78.1C1492.9 84.2 1494.4 95.4 1494.4 95.4" stroke="black" stroke-width="1.233" stroke-linecap="round" stroke-linejoin="round"/>
<path d="M1416.2 111C1416.4 111.088 1416.62 111.117 1416.83 111.081C1417.04 111.045 1417.24 110.948 1417.4 110.8C1421.6 104.8 1424.8 104.2 1427.4 105.3C1430 106.4 1431.3 109.1 1432.6 113.1C1432.73 113.486 1432.99 113.815 1433.34 114.033C1433.69 114.251 1434.09 114.345 1434.5 114.3C1434.78 114.257 1435.05 114.142 1435.28 113.967C1435.51 113.792 1435.69 113.563 1435.8 113.3C1437.8 108.9 1439 106.8 1441.3 105.2C1443.6 103.6 1448.3 102.9 1452.5 105.7L1457.8 93.1C1448.9 90.2 1443.4 84.5 1439.3 78.2C1435.2 71.9 1433.2 72.7 1427.7 81.5C1422.03 90.2324 1418 99.9237 1415.8 110.1C1415.77 110.273 1415.8 110.45 1415.87 110.61C1415.94 110.769 1416.05 110.905 1416.2 111Z" fill="#E8C30E"/>
<path d="M1440.9 90.6C1443.18 95.2747 1446.18 99.5606 1449.8 103.3" stroke="black" stroke-width="1.233" stroke-linecap="round" stroke-linejoin="round"/>
<path d="M1451.6 101.3C1457.4 99.1 1464.5 103.2 1467.4 110.4C1470.3 117.6 1468 125.3 1462.2 127.6L1479 126.5C1493.2 121 1500 113.3 1494.5 99.2C1490.4 88.8 1481 85.4 1468.2 90.4C1455.4 95.4 1451.6 101.3 1451.6 101.3Z" fill="black"/>
<path d="M1462.8 97.7C1468 104.4 1471.1 108.3 1472.5 109.3C1473.9 110.3 1473.9 109.5 1473.1 105.9C1472.3 102.3 1469.8 89.6 1469.8 89.6L1462.8 97.7Z" fill="white"/>
<path d="M1454.3 105.6C1458.1 110.5 1460.4 113.4 1461.4 114.1C1462.4 114.8 1462.4 114.2 1461.9 111.5C1461.4 108.8 1459.4 99.6 1459.4 99.6L1454.3 105.6Z" fill="#CCAA01"/>
<path d="M1479.6 124.3C1479.1 118.1 1478.8 114.5 1479.1 113.3C1479.4 112.1 1479.8 112.5 1481.1 114.8L1487.4 125.2L1479.6 124.3Z" fill="white"/>
<path d="M1455.6 125.2C1455.97 124.097 1456.59 123.092 1457.4 122.26C1458.21 121.429 1459.21 120.793 1460.3 120.4C1463.3 119.4 1466.9 118.8 1474.5 120.5C1477.09 121.179 1479.82 121.003 1482.3 120C1489.7 117.2 1494.4 108.5 1492.8 100.6C1491.2 92.7 1483.9 88.7 1476.5 91.6C1472.91 93.0376 1469.93 95.6923 1468.1 99.1C1463.1 108.4 1461.2 110.9 1456.8 112.9C1455.82 113.369 1454.76 113.637 1453.68 113.688C1452.6 113.74 1451.52 113.574 1450.5 113.2C1445.7 111.4 1443.4 105.3 1446.4 97.8C1448.1 93.5956 1450.83 89.8802 1454.32 86.9871C1457.81 84.0941 1461.97 82.1139 1466.42 81.2244C1470.87 80.335 1475.47 80.564 1479.81 81.8909C1484.15 83.2179 1488.09 85.6012 1491.28 88.8271C1494.47 92.0529 1496.81 96.0203 1498.08 100.373C1499.36 104.726 1499.54 109.328 1498.6 113.766C1497.66 118.205 1495.63 122.34 1492.7 125.802C1489.77 129.264 1486.02 131.943 1481.8 133.6C1475.04 136.18 1467.55 136.037 1460.9 133.2C1455.4 130.8 1454.8 127.7 1455.6 125.2Z" fill="url(#paint4_linear_5_2)"/>
<path d="M1487.9 88.8C1485.96 87.7627 1483.81 87.1706 1481.62 87.0668C1479.42 86.963 1477.23 87.3501 1475.2 88.2C1470.9 89.8 1467.5 93 1464.9 97.5C1462.3 102 1456.8 110.9 1451.9 111.1C1450.74 111.175 1449.58 110.969 1448.52 110.499C1447.46 110.029 1446.52 109.309 1445.8 108.4C1445.8 108.5 1445.9 108.6 1445.9 108.7C1446.38 109.832 1447.17 110.806 1448.18 111.513C1449.19 112.22 1450.37 112.631 1451.6 112.7H1452C1456.4 112.5 1460.8 108.1 1466.2 98.4C1468.26 94.4488 1471.67 91.3635 1475.8 89.7C1477.62 88.9323 1479.58 88.5788 1481.56 88.6653C1483.53 88.7518 1485.46 89.276 1487.2 90.2C1489.04 91.2359 1490.63 92.6724 1491.84 94.4033C1493.05 96.1342 1493.86 98.1152 1494.2 100.2C1496.1 109.3 1490.8 119.4 1482.4 122.7C1479.55 123.735 1476.45 123.908 1473.5 123.2C1465.3 121.6 1459.9 122 1456.9 124.6L1456.5 125C1455.95 125.554 1455.59 126.273 1455.48 127.049C1455.37 127.825 1455.52 128.616 1455.9 129.3C1455.97 128.608 1456.18 127.938 1456.52 127.335C1456.87 126.731 1457.34 126.208 1457.9 125.8C1460.4 123.5 1465.6 123.2 1473.2 124.7C1476.45 125.525 1479.88 125.316 1483 124.1C1492 120.6 1497.7 109.7 1495.7 99.9C1495.33 97.5795 1494.43 95.3744 1493.08 93.4513C1491.73 91.5283 1489.96 89.9378 1487.9 88.8Z" fill="#403500"/>
<path d="M1503.5 64.6C1519.3 69.8 1529.6 74 1529.6 74M1517.3 88.3C1512.1 82.9 1505 76 1499.2 70.3M1433.9 112.9C1432.6 104.1 1433.2 90.5 1433.2 90.5M1416.6 110.4C1419.61 103.153 1423.33 96.2201 1427.7 89.7" stroke="black" stroke-width="1.233" stroke-linecap="round" stroke-linejoin="round"/>
<path d="M1407.9 154.3H1407.5C1405.8 152.1 1404.7 152 1403.8 152.7C1402.95 153.798 1402.43 155.116 1402.3 156.5C1402.2 156.9 1401.9 157.3 1401.5 157.3C1401.3 157.3 1401.2 157.2 1401.1 157C1400.1 155.1 1399.5 154.2 1398.4 153.6C1397.3 153 1395.2 153 1393.2 154.8L1390.3 148.8C1393.7 147.566 1396.52 145.105 1398.2 141.9C1399.6 139.5 1400.3 139.9 1402.6 143.2C1404.94 146.491 1406.73 150.138 1407.9 154C1407.92 154.019 1407.94 154.042 1407.95 154.068C1407.96 154.094 1407.97 154.122 1407.97 154.15C1407.97 154.178 1407.96 154.206 1407.95 154.232C1407.94 154.258 1407.92 154.281 1407.9 154.3ZM1366.8 150.1C1366.9 150.2 1367.1 150.3 1367.2 150.2C1369.3 148.7 1370.4 148.9 1371.1 149.6C1371.69 150.521 1371.93 151.617 1371.8 152.7C1371.8 152.843 1371.85 152.982 1371.94 153.093C1372.03 153.203 1372.16 153.276 1372.3 153.3C1372.41 153.316 1372.52 153.306 1372.62 153.272C1372.73 153.237 1372.82 153.178 1372.9 153.1C1373.58 152.177 1374.52 151.48 1375.6 151.1C1376.27 150.958 1376.96 151.026 1377.59 151.294C1378.21 151.563 1378.74 152.019 1379.1 152.6L1382.3 149.1C1380.1 147.39 1378.61 144.936 1378.1 142.2C1377.4 139.5 1376.7 139.7 1373.9 141.9C1371.04 144.043 1368.63 146.727 1366.8 149.8C1366.78 149.819 1366.76 149.842 1366.75 149.868C1366.74 149.894 1366.73 149.922 1366.73 149.95C1366.73 149.978 1366.74 150.006 1366.75 150.032C1366.76 150.058 1366.78 150.081 1366.8 150.1Z" fill="#E8C30E"/>
<path d="M1385.2 165C1390.39 165 1394.6 160.791 1394.6 155.6C1394.6 150.409 1390.39 146.2 1385.2 146.2C1380.01 146.2 1375.8 150.409 1375.8 155.6C1375.8 160.791 1380.01 165 1385.2 165Z" fill="#E8C30E"/>
<path d="M709.1 901.6C710.063 902.517 711.1 903.353 712.2 904.1C716.5 906.9 717.6 910 715.7 912.5C713.8 915 708.5 914.8 704.1 911.5C699.7 908.2 697.8 903.3 699.8 900.5C701.8 897.7 705.3 898 709.1 901.6Z" fill="#FFC069"/>
<path d="M622.962 989.913L641.998 988.348L642.971 1000.18L623.935 1001.74L622.962 989.913Z" fill="#C5A91F"/>
<path d="M748.6 975.5C758.4 969.6 757.5 962.1 746.4 958.9L726 953C714.9 949.8 697.7 952.1 687.9 958.1L630.8 992.6C621 998.6 622 1006 633 1009.2L653.4 1015.1C664.5 1018.3 681.7 1016 691.5 1010L748.6 975.5Z" fill="#C5A91F"/>
<path d="M735.315 956.125L754.351 954.56L755.323 966.39L736.288 967.955L735.315 956.125Z" fill="#BF9F00"/>
<path d="M747.6 963.8C757.5 957.8 756.5 950.3 745.4 947.1L725 941.3C713.9 938.1 696.8 940.4 686.9 946.3L629.9 980.8C620 986.8 621 994.3 632.1 997.4L652.5 1003.3C663.6 1006.5 680.7 1004.2 690.6 998.2L747.6 963.8Z" fill="#E6BF00"/>
<path d="M748.6 975.5L747.4 976.2L704.6 952.4C712.1 951.2 719.9 951.3 726 953L746.4 958.9C748.111 959.403 749.756 960.108 751.3 961C757.5 964.7 756.7 970.6 748.6 975.5Z" fill="#BF9F00"/>
<path d="M751.3 961C750.161 962.052 748.922 962.99 747.6 963.8L746.5 964.4L704.6 952.4L685.8 947L686.9 946.3C696.8 940.4 713.9 938.1 725 941.3L745.4 947.1C754.8 949.8 757 955.6 751.3 961Z" fill="#EDC70F"/>
<path d="M691.7 997.6L746.5 964.4L685.8 947L631 980.1L691.7 997.6Z" fill="black"/>
<path d="M747.4 976.2L746.5 964.4L691.7 997.6L692.7 1009.3L747.4 976.2Z" fill="black"/>
<path d="M747.2 959.2C757.1 953.3 756.1 945.8 745 942.6L724.6 936.7C713.5 933.5 696.4 935.8 686.5 941.8L629.5 976.3C619.6 982.3 620.6 989.7 631.7 992.9L652.1 998.8C663.2 1002 680.3 999.7 690.2 993.7L747.2 959.2Z" fill="white"/>
<path d="M625.8 977.4C635.8 1009.2 633.5 1012.4 644.7 1000.4C655.9 988.4 666.1 981.8 698 992.9C736.5 1006.4 732.7 1006 734.9 975.8C735.9 963.1 743.7 955.8 748.9 944.9L625.8 977.4Z" fill="#FFC619"/>
<path d="M661.814 994.516C679.971 991.964 693.787 983.466 692.673 975.536C691.558 967.606 675.935 963.246 657.778 965.798C639.62 968.35 625.804 976.847 626.919 984.777C628.033 992.707 643.656 997.067 661.814 994.516Z" fill="#EDC70F"/>
<path d="M697.042 982.817C715.199 980.265 729.015 971.767 727.901 963.837C726.786 955.907 711.163 951.547 693.006 954.099C674.848 956.651 661.032 965.148 662.147 973.078C663.261 981.009 678.884 985.369 697.042 982.817Z" fill="#BF9F00"/>
<path d="M721.691 962.59C739.848 960.038 753.664 951.54 752.55 943.61C751.435 935.68 735.812 931.32 717.655 933.872C699.498 936.424 685.682 944.921 686.796 952.851C687.911 960.781 703.534 965.141 721.691 962.59Z" fill="#EDC70F"/>
<path d="M724.7 930.5L624.3 969.7C613.6 973.6 614.8 982.9 626.9 982.4C636.996 982.022 646.86 985.489 654.5 992.1C660.1 997 667.7 997.1 675.4 991.3C683.1 985.5 690.6 981.6 700 979.5C709.4 977.4 719.7 971.1 724.7 964.2C729.7 957.3 738.8 952.8 744.5 951.5C750.2 950.2 757.3 949 757.2 941.1C757.1 933.2 744.2 929.2 724.7 930.5Z" fill="#29CC7A"/>
<path d="M620.628 960.11L639.664 958.545L640.637 970.375L621.601 971.94L620.628 960.11Z" fill="#C5A91F"/>
<path d="M746.1 945.7C756 939.7 755 932.2 743.9 929L723.5 923.2C712.4 920 695.3 922.3 685.4 928.2L628.4 962.7C618.5 968.7 619.5 976.2 630.6 979.3L651 985.2C662.1 988.4 679.2 986.1 689.1 980.1L746.1 945.7Z" fill="#C5A91F"/>
<path d="M733.442 930.786L752.542 929.258L753.492 941.128L734.391 942.656L733.442 930.786Z" fill="#BF9F00"/>
<path d="M745.2 933.9C755 927.9 754 920.4 742.9 917.2L722.5 911.4C711.4 908.2 694.3 910.5 684.4 916.4L627.4 950.9C617.5 956.9 618.5 964.4 629.6 967.6L650 973.4C661.1 976.6 678.2 974.3 688.1 968.4L745.2 933.9Z" fill="#E6BF00"/>
<path d="M746.1 945.6L745 946.3L702.1 922.5C709.6 921.3 717.5 921.4 723.5 923.2L743.9 929C745.642 929.505 747.32 930.209 748.9 931.1C755 934.8 754.2 940.8 746.1 945.6Z" fill="#BF9F00"/>
<path d="M748.9 931.1C747.741 932.128 746.504 933.065 745.2 933.9L744 934.6L702.1 922.5L683.3 917.1L684.4 916.4C694.3 910.5 711.5 908.2 722.5 911.4L742.9 917.3C752.4 920 754.5 925.8 748.9 931.1Z" fill="#EDC70F"/>
<path d="M689.3 967.7L744 934.6L683.3 917.1L628.5 950.2L689.3 967.7Z" fill="#C5A91F"/>
<path d="M745 946.3L744 934.6L689.3 967.7L690.2 979.5L745 946.3Z" fill="black"/>
<path d="M686.3 942.4L672.2 898" stroke="black" stroke-width="2.096" stroke-miterlimit="10" stroke-linecap="round"/>
<path d="M680.7 936.3C687.162 936.3 692.4 931.062 692.4 924.6C692.4 918.138 687.162 912.9 680.7 912.9C674.238 912.9 669 918.138 669 924.6C669 931.062 674.238 936.3 680.7 936.3Z" fill="#29CC7A"/>
<path d="M678.4 917.5L672.2 898" stroke="black" stroke-width="2.096" stroke-miterlimit="10" stroke-linecap="round"/>
<path d="M672.2 902.1C674.464 902.1 676.3 900.264 676.3 898C676.3 895.736 674.464 893.9 672.2 893.9C669.936 893.9 668.1 895.736 668.1 898C668.1 900.264 669.936 902.1 672.2 902.1Z" fill="#EDC70F"/>
<path d="M662.278 969.329C666.597 968.714 669.885 966.709 669.62 964.85C669.355 962.991 665.639 961.982 661.32 962.597C657 963.212 653.713 965.217 653.978 967.076C654.242 968.935 657.958 969.944 662.278 969.329Z" fill="black"/>
<path d="M734.591 925.45C738.911 924.836 742.198 922.83 741.933 920.971C741.669 919.112 737.953 918.103 733.633 918.718C729.314 919.333 726.026 921.338 726.291 923.197C726.556 925.056 730.272 926.065 734.591 925.45Z" fill="black"/>
<path d="M803.6 992.1C795 998.3 783.8 998.7 778.7 993C773.6 987.3 777.3 982.9 787.1 980.6C790.28 979.826 793.102 977.992 795.1 975.4C800.6 968.1 805.7 965.6 810 970.5C814.3 975.4 812.2 985.9 803.6 992.1ZM611.1 1042.7C610.6 1047.3 606.2 1047.3 601.4 1043.7C598.998 1041.82 596.051 1040.76 593 1040.7C587.6 1040.7 584.6 1039.7 585.1 1035.3C585.6 1030.9 591.9 1026.6 599.1 1028.6C606.3 1030.6 611.6 1037 611.1 1042.7Z" fill="#FFC069"/>
<path d="M1007.8 132.9C1008.2 126.9 1004.5 121.4 997.7 121.9C990.9 122.4 987.4 124.7 979.8 128.5C975.718 130.533 971.111 131.266 966.6 130.6C945.7 127.6 940.3 128 936 129.6C931.7 131.2 930.3 133.6 931.7 138.5C933.1 143.4 936 146.3 943 148.5C950 150.7 965.5 156.2 974.5 160.4C983.5 164.6 993.9 165.8 1001.4 169.6C1008.9 173.4 1028.6 187.1 1035.7 192.9C1042.8 198.7 1045.2 197.4 1046 196.6C1046.8 195.8 1046.7 195.1 1046.3 188.6C1045.91 182.456 1043.75 176.555 1040.1 171.6C1036.2 166.1 1027.8 158.1 1023.2 151.1C1018.6 144.1 1016.3 133.9 1007.8 132.9Z" fill="#FF8C19"/>
<path d="M1023.2 151.1C1018.6 144.1 1016.3 133.9 1007.8 132.9C995 132.6 984.3 138.6 976.5 139.8C970.9 140.6 957.7 140.8 952.3 140.9C946.9 141 945.9 141.6 945.1 142.3C944.3 143 944 144.3 945 144.8L944.6 146.9L952.5 149.7L987.3 162.1L1006 170.9L1028.1 185.1L1043.7 196.6L1046.2 196.4C1046.8 195.6 1046.7 194.5 1046.3 188.6C1045.91 182.456 1043.75 176.555 1040.1 171.6C1036.2 166.1 1027.8 158.1 1023.2 151.1Z" fill="url(#paint5_linear_5_2)"/>
<path d="M1046 196.6C1046.4 196.2 1046.6 195.8 1046.6 194.5C1046.3 197.6 1043 194.6 1040.5 192.3C1038 190 1031.5 181.1 1020 176.3C998.9 167.3 994.7 157.7 972.1 155C961.4 153.8 950.8 147.1 947.5 145.8C944.2 144.5 943.3 144.3 943.4 142.8C943.739 139.566 943.038 136.309 941.4 133.5C939 129.7 934.7 128.7 932 132.7C931.567 133.598 931.317 134.574 931.266 135.57C931.214 136.566 931.362 137.562 931.7 138.5C933 143.4 936 146.3 943 148.5C950 150.7 965.5 156.2 974.5 160.4C983.5 164.6 993.9 165.8 1001.4 169.6C1008.9 173.4 1028.6 187.1 1035.7 192.9C1042.8 198.7 1045.2 197.4 1046 196.6Z" fill="#ED5F00"/>
<path d="M1046 196.6C1046.4 196.2 1046.6 195.8 1046.6 194.5C1046.3 197.6 1043 194.6 1040.5 192.3C1038.15 189.589 1035.65 187.018 1033 184.6C1035.2 186.8 1035.8 190.2 1035.9 193C1042.9 198.7 1045.2 197.4 1046 196.6Z" fill="black"/>
<path d="M1050.3 203.2C1049.1 199.6 1049.2 196.5 1049.5 192.5C1049.8 188.5 1048.2 181.7 1040.8 172.6L1037.4 188.9C1043.4 195.8 1046.3 201.8 1046.3 205.6C1046.3 209.4 1046.9 215.6 1050.4 214.8C1053.9 214 1051.5 206.8 1050.3 203.2Z" fill="#FFC619"/>
<path d="M955.8 146.5C958.324 148.113 961.046 149.39 963.9 150.3C967.561 151.478 971.304 152.381 975.1 153C975.4 153 975.5 152.9 975.5 152.7C975 148.5 969.4 145.2 965.3 144.6C961.2 144 956.9 144.7 955.6 146C954.3 147.3 955.6 146.4 955.8 146.5Z" fill="#FF78B9"/>
<path d="M1009.7 145.5C1009.4 148.4 1004.6 150.4 998.9 149.9C993.2 149.4 988.8 146.6 989 143.6C989.2 140.6 992.6 138.8 997 140.8C998.912 141.604 1000.94 142.109 1003 142.3C1007.4 142.7 1009.9 143.2 1009.7 145.5ZM1017.9 164.6C1019.38 165.466 1020.92 166.234 1022.5 166.9C1025.2 167.9 1026.1 168.7 1025.2 169.9C1024.3 171.1 1020.4 171.4 1016.7 169.6C1013 167.8 1011.1 165.1 1012.1 163.5C1013.1 161.9 1015 162.8 1017.9 164.6ZM1040.5 170.1C1039.38 168.599 1037.74 167.566 1035.9 167.2C1033.1 166.6 1031.8 168 1031.9 169.9C1032 171.8 1034.4 175.1 1039.2 178.6C1044 182.1 1045.3 177.6 1044.4 175.6C1043.5 173.6 1041.8 171.8 1040.5 170.1Z" fill="#D6B100"/>
<path d="M1009.6 102.9C1004.72 102.647 999.843 103.291 995.2 104.8C991.7 106 994.6 110 1003.8 112.3C1013 114.6 1023.1 114.1 1026.8 114.1C1030.5 114.1 1030.1 114.3 1032.4 116.8C1034.7 119.3 1036.5 121.2 1036.6 119.1C1036.7 117 1036.2 115.1 1037.8 113.3C1039.4 111.5 1040 110.5 1040 108.9C1040 107.3 1039.4 107.6 1037.5 108.7C1035.66 109.806 1033.75 110.808 1031.8 111.7C1030.9 112 1030.8 111.3 1028.4 109.5C1022.98 105.392 1016.4 103.084 1009.6 102.9Z" fill="#CEB01A"/>
<path d="M990.7 107.2L995.1 106.1L992 103.4" stroke="#CEB01A" stroke-width="2.439" stroke-linecap="round" stroke-linejoin="round"/>
<path d="M1001.75 106.045C1002.3 106.04 1002.75 105.766 1002.74 105.435C1002.74 105.104 1002.29 104.84 1001.74 104.846C1001.19 104.851 1000.74 105.125 1000.74 105.456C1000.75 105.787 1001.2 106.051 1001.75 106.045Z" fill="black"/>
<path d="M939.4 135.9C938 133.8 935.8 133.1 934.6 134.2C933.4 135.3 933.4 137.9 934.8 139.9C936.2 141.9 938.3 142.7 939.6 141.6C940.9 140.5 940.7 137.9 939.4 135.9Z" fill="#FF8C19"/>
<path d="M1036.9 181.2C1041.5 184.3 1043.6 186.7 1044.8 191.6" stroke="#FFE75C" stroke-width="1.742" stroke-miterlimit="10" stroke-linecap="round"/>
<path d="M1033 113.5L1035.4 113.2" stroke="black" stroke-width="1.742" stroke-miterlimit="10" stroke-linecap="round"/>
<path d="M964.6 175.9C960.216 176.387 955.951 177.639 952 179.6C949.1 181.2 952.2 184.4 960.8 185.2C969.4 186 978.2 184 981.6 183.6C985 183.2 984.6 183.2 987 185.2C989.4 187.2 991.3 188.6 991.1 186.7C990.9 184.8 990.2 183.1 991.3 181.3C992.4 179.5 992.9 178.5 992.7 177C992.5 175.5 992 175.9 990.4 177.2C988.95 178.516 987.376 179.688 985.7 180.7C984.9 181.1 984.8 180.4 982.4 179.3C976.968 176.334 970.743 175.144 964.6 175.9Z" fill="#AE9104"/>
<path d="M608.7 175.3L593 176.8C591.753 176.91 590.552 177.322 589.5 178C583.9 181.4 582.8 183.7 582.8 183.7L592.1 192.7L610.6 178.1L608.7 175.3Z" fill="#FFE75C"/>
<path d="M553.6 178.7L555.9 176.1C555.9 176.1 568 175 572.6 174.9C577.2 174.8 587.2 179.1 592.6 188.2C598.3 179 606.1 175.8 608.7 175.3L610.6 178.1L591 195L553.6 178.7Z" fill="#FFC619"/>
<path d="M570.6 193.4C570.108 194.704 569.707 196.041 569.4 197.4C569.1 198.7 570 198.7 576.6 198.7H592.1C594 198.8 594.8 197.9 593.8 194.3C599.5 187.8 609.5 181.3 613.2 179C613.261 178.969 613.314 178.925 613.357 178.873C613.401 178.82 613.433 178.759 613.451 178.693C613.47 178.628 613.475 178.559 613.466 178.491C613.458 178.424 613.435 178.359 613.4 178.3L612.5 177.2C612.409 177.147 612.305 177.12 612.2 177.12C612.095 177.12 611.991 177.147 611.9 177.2C604.3 182.2 598 186.7 592.1 192.6C584.1 183.4 577.7 179.8 572.4 177.4C572.129 177.241 571.814 177.171 571.5 177.2L551.5 178.2C551.208 178.2 550.929 178.316 550.722 178.522C550.516 178.728 550.4 179.008 550.4 179.3C550.389 179.495 550.442 179.688 550.55 179.85C550.658 180.013 550.816 180.135 551 180.2C564.1 185.9 570.6 193.4 570.6 193.4Z" fill="#6A5A0B"/>
<path d="M570.6 193.4C570.108 194.704 569.707 196.041 569.4 197.4C569.1 198.7 570 198.7 576.6 198.7H589.6C587.9 198.6 587.6 198.2 589.7 194C587.1 190.1 581.1 184.4 572.1 179.5L551 180.2C564.1 185.9 570.6 193.4 570.6 193.4Z" fill="#8D7C27"/>
<path d="M592.4 190.2L592.1 192.7" stroke="black" stroke-width="1.521" stroke-miterlimit="10" stroke-linecap="round"/>
<path d="M509.7 158.6L509.1 157.6C509 157.5 508.7 157.4 508.6 157.5L507.4 158.2L505.9 155.7L492.6 156C491.559 156.078 490.542 156.349 489.6 156.8C488.456 157.391 487.353 158.059 486.3 158.8C482.5 155.2 478.1 153.4 475.5 153.3C472.9 153.2 461.3 153.3 461.3 153.3L459.6 155H457.4C457.169 155.022 456.953 155.124 456.788 155.288C456.624 155.453 456.522 155.669 456.5 155.9C456.463 156.059 456.483 156.226 456.556 156.372C456.629 156.518 456.75 156.634 456.9 156.7C460.812 158.649 464.472 161.067 467.8 163.9L469.4 165.3L470.1 166.1C471.072 166.93 471.945 167.869 472.7 168.9C472.7 168.9 471.8 171.1 471.5 172.2C471.5 172.4 471.4 172.5 471.4 172.6C471.398 172.717 471.436 172.831 471.509 172.922C471.583 173.014 471.685 173.077 471.8 173.1C472.573 173.363 473.384 173.498 474.2 173.5L477.6 173.7H488.4L490.6 173.9C492.2 174 492.9 173.4 492.3 170.2C497.5 165.1 506.3 160.2 509.6 158.4C509.8 159 509.9 158.8 509.7 158.6Z" fill="#BA9F1D"/>
<path d="M547.3 128.7L524.6 130.9C522.84 131.074 521.154 131.693 519.7 132.7C512.1 137.6 510.8 141.1 510.8 141.1L526.1 154.2L550.7 132.8L547.3 128.7Z" fill="#FFE75C"/>
<path d="M467.2 133.9L470.1 130.1C470.1 130.1 487.6 128.4 494.3 128.3C501 128.2 516.4 134.3 526.1 147.6C532.7 134.1 543.6 129.4 547.3 128.7L550.7 132.8L524.9 157.6L467.2 133.9Z" fill="#FFC619"/>
<path d="M494.7 155.3C494.7 155.3 493.8 159.3 493.6 161.2C493.4 163.1 494.7 163.2 504.5 163.1H527.2C530 163.2 531 161.9 528.9 156.6C536.2 147.2 549.6 137.6 554.7 134.2C554.767 134.135 554.819 134.057 554.856 133.971C554.892 133.885 554.91 133.793 554.91 133.7C554.91 133.607 554.892 133.515 554.856 133.429C554.819 133.343 554.767 133.265 554.7 133.2L553.3 131.6C553.178 131.494 553.026 131.428 552.866 131.41C552.705 131.393 552.543 131.424 552.4 131.5C542.2 138.9 533.7 145.5 526.1 154.2C512.7 140.8 502.7 135.5 494.5 132C494.087 131.838 493.643 131.77 493.2 131.8L464 133.4C463.798 133.398 463.598 133.44 463.414 133.522C463.229 133.605 463.065 133.726 462.932 133.878C462.799 134.03 462.701 134.209 462.643 134.403C462.586 134.596 462.571 134.8 462.6 135C462.609 135.294 462.71 135.578 462.89 135.812C463.069 136.045 463.318 136.216 463.6 136.3C483.9 144.4 494.7 155.3 494.7 155.3Z" fill="#715E00"/>
<path d="M494.7 155.3C494.7 155.3 493.8 159.3 493.6 161.2C493.4 163.1 494.7 163.2 504.5 163.1H523.5C521.1 163 520.5 162.3 522.8 156.3C518.4 150.6 508.5 142.3 494.4 135.2L463.6 136.3C483.9 144.4 494.7 155.3 494.7 155.3Z" fill="#8B7714"/>
<path d="M526 150L526.2 151.9" stroke="black" stroke-width="1.521" stroke-miterlimit="10" stroke-linecap="round"/>
<path d="M1197 1115.1C1199.31 1115.12 1201.6 1114.63 1203.7 1113.67C1205.8 1112.71 1207.66 1111.29 1209.15 1109.52C1210.64 1107.75 1211.73 1105.68 1212.32 1103.45C1212.92 1101.21 1213.01 1098.87 1212.6 1096.6C1208.14 1072.78 1196.07 1051.05 1178.19 1034.69C1160.31 1018.33 1137.6 1008.22 1113.48 1005.88C1089.36 1003.55 1065.13 1009.11 1044.45 1021.74C1023.76 1034.37 1007.74 1053.38 998.8 1075.9C978.79 1071.53 957.984 1072.48 938.456 1078.66C918.928 1084.83 901.359 1096.02 887.5 1111.1C887.191 1111.45 886.988 1111.87 886.917 1112.33C886.846 1112.79 886.91 1113.26 887.1 1113.68C887.291 1114.11 887.6 1114.47 887.99 1114.72C888.381 1114.97 888.836 1115.1 889.3 1115.1H1197Z" fill="#DAB502"/>
</g>
<defs>
<filter id="filter0_d_5_2" x="0" y="0" width="1708" height="1208" filterUnits="userSpaceOnUse" color-interpolation-filters="sRGB">
<feFlood flood-opacity="0" result="BackgroundImageFix"/>
<feColorMatrix in="SourceAlpha" type="matrix" values="0 0 0 0 0 0 0 0 0 0 0 0 0 0 0 0 0 0 127 0" result="hardAlpha"/>
<feOffset dy="4"/>
<feGaussianBlur stdDeviation="2"/>
<feComposite in2="hardAlpha" operator="out"/>
<feColorMatrix type="matrix" values="0 0 0 0 0 0 0 0 0 0 0 0 0 0 0 0 0 0 0.25 0"/>
<feBlend mode="normal" in2="BackgroundImageFix" result="effect1_dropShadow_5_2"/>
<feBlend mode="normal" in="SourceGraphic" in2="effect1_dropShadow_5_2" result="shape"/>
</filter>
<linearGradient id="paint0_linear_5_2" x1="273.71" y1="800.4" x2="273.71" y2="913.29" gradientUnits="userSpaceOnUse">
<stop stop-color="#29CC7A"/>
<stop offset="1" stop-color="#038567"/>
</linearGradient>
<linearGradient id="paint1_linear_5_2" x1="1516.99" y1="519.46" x2="1507.54" y2="476.33" gradientUnits="userSpaceOnUse">
<stop stop-color="#FFE75C"/>
<stop offset="1" stop-color="#FFC619"/>
</linearGradient>
<linearGradient id="paint2_linear_5_2" x1="1445.31" y1="493.59" x2="1430.37" y2="538.11" gradientUnits="userSpaceOnUse">
<stop stop-color="#FFE75C"/>
<stop offset="1" stop-color="#FFC619"/>
</linearGradient>
<linearGradient id="paint3_linear_5_2" x1="1174.7" y1="805.19" x2="1130.43" y2="847.49" gradientUnits="userSpaceOnUse">
<stop stop-color="#D11583"/>
<stop offset="1" stop-color="#EB50A4"/>
</linearGradient>
<linearGradient id="paint4_linear_5_2" x1="1482.25" y1="129.699" x2="1467.31" y2="91.3881" gradientUnits="userSpaceOnUse">
<stop stop-color="#CCA900"/>
<stop offset="1" stop-color="#FFEB89"/>
</linearGradient>
<linearGradient id="paint5_linear_5_2" x1="1033.19" y1="175.445" x2="979.378" y2="141.344" gradientUnits="userSpaceOnUse">
<stop stop-color="#FFC619"/>
<stop offset="1" stop-color="#FFE75C"/>
</linearGradient>
<clipPath id="clip0_5_2">
<rect width="1700" height="1200" fill="white" transform="translate(4)"/>
</clipPath>
</defs>
</svg>
